<svg viewBox="0 0 1501 400" xmlns="http://www.w3.org/2000/svg"><g><g><g><g><g><line x1="61.90000057220459" y1="377.95999908447266" x2="56.90000057220459" y2="377.95999908447266" style="visibility: inherit;" fill="rgb(0, 0, 0)" stroke="rgb(204, 204, 204)" stroke-width="1px"></line><line x1="61.90000057220459" y1="346.4633324940999" x2="56.90000057220459" y2="346.4633324940999" style="visibility: inherit;" fill="rgb(0, 0, 0)" stroke="rgb(204, 204, 204)" stroke-width="1px"></line><line x1="61.90000057220459" y1="314.96666590372723" x2="56.90000057220459" y2="314.96666590372723" style="visibility: inherit;" fill="rgb(0, 0, 0)" stroke="rgb(204, 204, 204)" stroke-width="1px"></line><line x1="61.90000057220459" y1="283.4699993133545" x2="56.90000057220459" y2="283.4699993133545" style="visibility: inherit;" fill="rgb(0, 0, 0)" stroke="rgb(204, 204, 204)" stroke-width="1px"></line><line x1="61.90000057220459" y1="251.97333272298178" x2="56.90000057220459" y2="251.97333272298178" style="visibility: inherit;" fill="rgb(0, 0, 0)" stroke="rgb(204, 204, 204)" stroke-width="1px"></line><line x1="61.90000057220459" y1="220.47666613260907" x2="56.90000057220459" y2="220.47666613260907" style="visibility: inherit;" fill="rgb(0, 0, 0)" stroke="rgb(204, 204, 204)" stroke-width="1px"></line><line x1="61.90000057220459" y1="188.97999954223636" x2="56.90000057220459" y2="188.97999954223636" style="visibility: inherit;" fill="rgb(0, 0, 0)" stroke="rgb(204, 204, 204)" stroke-width="1px"></line><line x1="61.90000057220459" y1="157.48333295186364" x2="56.90000057220459" y2="157.48333295186364" style="visibility: inherit;" fill="rgb(0, 0, 0)" stroke="rgb(204, 204, 204)" stroke-width="1px"></line><line x1="61.90000057220459" y1="125.98666636149093" x2="56.90000057220459" y2="125.98666636149093" style="visibility: inherit;" fill="rgb(0, 0, 0)" stroke="rgb(204, 204, 204)" stroke-width="1px"></line><line x1="61.90000057220459" y1="94.48999977111822" x2="56.90000057220459" y2="94.48999977111822" style="visibility: inherit;" fill="rgb(0, 0, 0)" stroke="rgb(204, 204, 204)" stroke-width="1px"></line><line x1="61.90000057220459" y1="62.99333318074548" x2="56.90000057220459" y2="62.99333318074548" style="visibility: inherit;" fill="rgb(0, 0, 0)" stroke="rgb(204, 204, 204)" stroke-width="1px"></line><line x1="61.90000057220459" y1="31.49666659037274" x2="56.90000057220459" y2="31.49666659037274" style="visibility: inherit;" fill="rgb(0, 0, 0)" stroke="rgb(204, 204, 204)" stroke-width="1px"></line><line x1="61.90000057220459" y1="0" x2="56.90000057220459" y2="0" style="visibility: inherit;" fill="rgb(0, 0, 0)" stroke="rgb(204, 204, 204)" stroke-width="1px"></line></g><g transform="translate(51.90000057220459, 0)"><text style="text-anchor: end; visibility: hidden; font-family: &quot;Helvetica Neue&quot;, sans-serif; font-size: 12px; font-weight: 200;" x="0" y="377.95999908447266" dx="0em" dy="0.3em" fill="rgb(50, 49, 63)" stroke="none" stroke-width="1px">-0.05</text><text style="text-anchor: end; visibility: inherit; font-family: &quot;Helvetica Neue&quot;, sans-serif; font-size: 12px; font-weight: 200;" x="0" y="346.4633324940999" dx="0em" dy="0.3em" fill="rgb(50, 49, 63)" stroke="none" stroke-width="1px">0</text><text style="text-anchor: end; visibility: inherit; font-family: &quot;Helvetica Neue&quot;, sans-serif; font-size: 12px; font-weight: 200;" x="0" y="314.96666590372723" dx="0em" dy="0.3em" fill="rgb(50, 49, 63)" stroke="none" stroke-width="1px">0.05</text><text style="text-anchor: end; visibility: inherit; font-family: &quot;Helvetica Neue&quot;, sans-serif; font-size: 12px; font-weight: 200;" x="0" y="283.4699993133545" dx="0em" dy="0.3em" fill="rgb(50, 49, 63)" stroke="none" stroke-width="1px">0.1</text><text style="text-anchor: end; visibility: inherit; font-family: &quot;Helvetica Neue&quot;, sans-serif; font-size: 12px; font-weight: 200;" x="0" y="251.97333272298178" dx="0em" dy="0.3em" fill="rgb(50, 49, 63)" stroke="none" stroke-width="1px">0.15</text><text style="text-anchor: end; visibility: inherit; font-family: &quot;Helvetica Neue&quot;, sans-serif; font-size: 12px; font-weight: 200;" x="0" y="220.47666613260907" dx="0em" dy="0.3em" fill="rgb(50, 49, 63)" stroke="none" stroke-width="1px">0.2</text><text style="text-anchor: end; visibility: inherit; font-family: &quot;Helvetica Neue&quot;, sans-serif; font-size: 12px; font-weight: 200;" x="0" y="188.97999954223636" dx="0em" dy="0.3em" fill="rgb(50, 49, 63)" stroke="none" stroke-width="1px">0.25</text><text style="text-anchor: end; visibility: inherit; font-family: &quot;Helvetica Neue&quot;, sans-serif; font-size: 12px; font-weight: 200;" x="0" y="157.48333295186364" dx="0em" dy="0.3em" fill="rgb(50, 49, 63)" stroke="none" stroke-width="1px">0.3</text><text style="text-anchor: end; visibility: inherit; font-family: &quot;Helvetica Neue&quot;, sans-serif; font-size: 12px; font-weight: 200;" x="0" y="125.98666636149093" dx="0em" dy="0.3em" fill="rgb(50, 49, 63)" stroke="none" stroke-width="1px">0.35</text><text style="text-anchor: end; visibility: inherit; font-family: &quot;Helvetica Neue&quot;, sans-serif; font-size: 12px; font-weight: 200;" x="0" y="94.48999977111822" dx="0em" dy="0.3em" fill="rgb(50, 49, 63)" stroke="none" stroke-width="1px">0.4</text><text style="text-anchor: end; visibility: inherit; font-family: &quot;Helvetica Neue&quot;, sans-serif; font-size: 12px; font-weight: 200;" x="0" y="62.99333318074548" dx="0em" dy="0.3em" fill="rgb(50, 49, 63)" stroke="none" stroke-width="1px">0.45</text><text style="text-anchor: end; visibility: inherit; font-family: &quot;Helvetica Neue&quot;, sans-serif; font-size: 12px; font-weight: 200;" x="0" y="31.49666659037274" dx="0em" dy="0.3em" fill="rgb(50, 49, 63)" stroke="none" stroke-width="1px">0.5</text><text style="text-anchor: end; visibility: hidden; font-family: &quot;Helvetica Neue&quot;, sans-serif; font-size: 12px; font-weight: 200;" x="0" y="0" dx="0em" dy="0.3em" fill="rgb(50, 49, 63)" stroke="none" stroke-width="1px">0.55</text></g><line x1="61.90000057220459" y1="0" x2="61.90000057220459" y2="377.95999908447266" fill="rgb(0, 0, 0)" stroke="rgb(204, 204, 204)" stroke-width="1px"></line></g></g><g transform="translate(61, 0)" clip-path="url(#clip_0)"><clipPath id="clip_0"><rect width="1439" height="377"></rect></clipPath><g><g><g><line x1="0" y1="0" x2="0" y2="377.95999908447266" fill="rgb(0, 0, 0)" stroke="rgb(60, 60, 60)" stroke-width="1px" opacity="0.25"></line><line x1="119.92499995231628" y1="0" x2="119.92499995231628" y2="377.95999908447266" fill="rgb(0, 0, 0)" stroke="rgb(60, 60, 60)" stroke-width="1px" opacity="0.25"></line><line x1="239.84999990463257" y1="0" x2="239.84999990463257" y2="377.95999908447266" fill="rgb(0, 0, 0)" stroke="rgb(60, 60, 60)" stroke-width="1px" opacity="0.25"></line><line x1="359.77499985694885" y1="0" x2="359.77499985694885" y2="377.95999908447266" fill="rgb(0, 0, 0)" stroke="rgb(60, 60, 60)" stroke-width="1px" opacity="0.25"></line><line x1="479.69999980926514" y1="0" x2="479.69999980926514" y2="377.95999908447266" fill="rgb(0, 0, 0)" stroke="rgb(60, 60, 60)" stroke-width="1px" opacity="0.25"></line><line x1="599.6249997615814" y1="0" x2="599.6249997615814" y2="377.95999908447266" fill="rgb(0, 0, 0)" stroke="rgb(60, 60, 60)" stroke-width="1px" opacity="0.25"></line><line x1="719.5499997138977" y1="0" x2="719.5499997138977" y2="377.95999908447266" fill="rgb(0, 0, 0)" stroke="rgb(60, 60, 60)" stroke-width="1px" opacity="0.25"></line><line x1="839.474999666214" y1="0" x2="839.474999666214" y2="377.95999908447266" fill="rgb(0, 0, 0)" stroke="rgb(60, 60, 60)" stroke-width="1px" opacity="0.25"></line><line x1="959.3999996185303" y1="0" x2="959.3999996185303" y2="377.95999908447266" fill="rgb(0, 0, 0)" stroke="rgb(60, 60, 60)" stroke-width="1px" opacity="0.25"></line><line x1="1079.3249995708466" y1="0" x2="1079.3249995708466" y2="377.95999908447266" fill="rgb(0, 0, 0)" stroke="rgb(60, 60, 60)" stroke-width="1px" opacity="0.25"></line><line x1="1199.2499995231628" y1="0" x2="1199.2499995231628" y2="377.95999908447266" fill="rgb(0, 0, 0)" stroke="rgb(60, 60, 60)" stroke-width="1px" opacity="0.25"></line><line x1="1319.1749994754791" y1="0" x2="1319.1749994754791" y2="377.95999908447266" fill="rgb(0, 0, 0)" stroke="rgb(60, 60, 60)" stroke-width="1px" opacity="0.25"></line><line x1="1439.0999994277954" y1="0" x2="1439.0999994277954" y2="377.95999908447266" fill="rgb(0, 0, 0)" stroke="rgb(60, 60, 60)" stroke-width="1px" opacity="0.25"></line></g><g><line x1="0" y1="377.95999908447266" x2="1439.0999994277954" y2="377.95999908447266" fill="rgb(0, 0, 0)" stroke="rgb(60, 60, 60)" stroke-width="1px" opacity="0.25"></line><line x1="0" y1="346.4633324940999" x2="1439.0999994277954" y2="346.4633324940999" fill="rgb(0, 0, 0)" stroke="rgb(60, 60, 60)" stroke-width="1px" opacity="0.25"></line><line x1="0" y1="314.96666590372723" x2="1439.0999994277954" y2="314.96666590372723" fill="rgb(0, 0, 0)" stroke="rgb(60, 60, 60)" stroke-width="1px" opacity="0.25"></line><line x1="0" y1="283.4699993133545" x2="1439.0999994277954" y2="283.4699993133545" fill="rgb(0, 0, 0)" stroke="rgb(60, 60, 60)" stroke-width="1px" opacity="0.25"></line><line x1="0" y1="251.97333272298178" x2="1439.0999994277954" y2="251.97333272298178" fill="rgb(0, 0, 0)" stroke="rgb(60, 60, 60)" stroke-width="1px" opacity="0.25"></line><line x1="0" y1="220.47666613260907" x2="1439.0999994277954" y2="220.47666613260907" fill="rgb(0, 0, 0)" stroke="rgb(60, 60, 60)" stroke-width="1px" opacity="0.25"></line><line x1="0" y1="188.97999954223636" x2="1439.0999994277954" y2="188.97999954223636" fill="rgb(0, 0, 0)" stroke="rgb(60, 60, 60)" stroke-width="1px" opacity="0.25"></line><line x1="0" y1="157.48333295186364" x2="1439.0999994277954" y2="157.48333295186364" fill="rgb(0, 0, 0)" stroke="rgb(60, 60, 60)" stroke-width="1px" opacity="0.25"></line><line x1="0" y1="125.98666636149093" x2="1439.0999994277954" y2="125.98666636149093" fill="rgb(0, 0, 0)" stroke="rgb(60, 60, 60)" stroke-width="1px" opacity="0.25"></line><line x1="0" y1="94.48999977111822" x2="1439.0999994277954" y2="94.48999977111822" fill="rgb(0, 0, 0)" stroke="rgb(60, 60, 60)" stroke-width="1px" opacity="0.25"></line><line x1="0" y1="62.99333318074548" x2="1439.0999994277954" y2="62.99333318074548" fill="rgb(0, 0, 0)" stroke="rgb(60, 60, 60)" stroke-width="1px" opacity="0.25"></line><line x1="0" y1="31.49666659037274" x2="1439.0999994277954" y2="31.49666659037274" fill="rgb(0, 0, 0)" stroke="rgb(60, 60, 60)" stroke-width="1px" opacity="0.25"></line><line x1="0" y1="0" x2="1439.0999994277954" y2="0" fill="rgb(0, 0, 0)" stroke="rgb(60, 60, 60)" stroke-width="1px" opacity="0.25"></line></g></g></g><g><g><line x1="0" y1="346.4633324940999" x2="1439.0999994277954" y2="346.4633324940999" fill="rgb(0, 0, 0)" stroke="rgb(153, 153, 153)" stroke-width="1.5px"></line></g></g><g><g><line x1="119.92499995231628" y1="0" x2="119.92499995231628" y2="377.95999908447266" fill="rgb(0, 0, 0)" stroke="rgb(153, 153, 153)" stroke-width="1.5px"></line></g></g><g><g><g><g><g><path style="fill: none;" stroke="rgb(238, 51, 119)" stroke-width="2px" d="M119.92499995231628,225.06290247243362L131.9174999475479,323.0239527932341L143.90999994277954,343.48492400908214L155.90249993801118,343.48492400908214L167.8949999332428,346.4633324940999L179.88749992847443,346.4633324940999L191.87999992370607,346.4633324940999L203.87249991893768,346.4633324940999L215.86499991416932,346.4633324940999L227.85749990940093,340.52056453767227L239.84999990463257,346.4633324940999L251.84249989986418,346.4633324940999L263.8349998950958,346.4633324940999L275.8274998903275,346.4633324940999L287.81999988555907,346.4633324940999L299.8124998807907,346.4633324940999L311.80499987602235,346.4633324940999L323.797499871254,346.4633324940999L335.7899998664856,346.4633324940999L347.7824998617172,346.4633324940999L359.77499985694885,343.48492400908214L371.7674998521805,343.48492400908214L383.75999984741213,343.48492400908214L395.7524998426438,343.48492400908214L407.74499983787535,343.48492400908214L419.737499833107,343.48492400908214L431.72999982833863,343.48492400908214L443.7224998235703,343.48492400908214L455.71499981880186,343.48492400908214L467.7074998140335,346.4633324940999L479.69999980926514,343.48492400908214L491.6924998044968,340.52056453767227L503.68499979972836,343.48492400908214L515.67749979496,343.48492400908214L527.6699997901916,343.48492400908214L539.6624997854233,343.48492400908214L551.654999780655,343.48492400908214L563.6474997758866,343.48492400908214L575.6399997711181,343.48492400908214L587.6324997663498,343.48492400908214L599.6249997615814,346.4633324940999L611.617499756813,343.48492400908214L623.6099997520447,343.48492400908214L635.6024997472763,343.48492400908214L647.594999742508,343.48492400908214L659.5874997377396,343.48492400908214L671.5799997329711,343.48492400908214L683.5724997282028,343.48492400908214L695.5649997234344,343.48492400908214L707.557499718666,343.48492400908214L719.5499997138977,343.48492400908214L731.5424997091293,343.48492400908214L743.534999704361,343.48492400908214L755.5274996995926,343.48492400908214L767.5199996948243,343.48492400908214L779.5124996900558,343.48492400908214L791.5049996852875,343.48492400908214L803.4974996805191,343.48492400908214L815.4899996757507,343.48492400908214L827.4824996709823,343.48492400908214L839.474999666214,343.48492400908214L851.4674996614456,343.48492400908214L863.4599996566773,343.48492400908214L875.4524996519089,334.63359839267537L887.4449996471405,337.5701566924624L899.4374996423721,337.5701566924624L911.4299996376037,337.5701566924624L923.4224996328354,340.52056453767227L935.414999628067,337.5701566924624L947.4074996232987,343.48492400908214L959.3999996185303,340.52056453767227L971.392499613762,343.48492400908214L983.3849996089936,343.48492400908214L995.3774996042251,337.5701566924624L1007.3699995994567,343.48492400908214L1019.3624995946884,337.5701566924624L1031.35499958992,343.48492400908214L1043.3474995851516,343.48492400908214L1055.3399995803832,337.5701566924624L1067.332499575615,340.52056453767227L1079.3249995708466,343.48492400908214L1091.3174995660781,340.52056453767227L1103.30999956131,340.52056453767227L1115.3024995565415,337.5701566924624L1127.2949995517731,340.52056453767227L1139.2874995470047,343.48492400908214L1151.2799995422363,343.48492400908214L1163.2724995374679,340.52056453767227L1175.2649995326997,343.48492400908214L1187.2574995279313,340.52056453767227L1199.2499995231628,340.52056453767227L1211.2424995183944,337.5701566924624L1223.234999513626,343.48492400908214L1235.2274995088576,340.52056453767227L1247.2199995040894,340.52056453767227L1259.212499499321,337.5701566924624L1271.2049994945526,337.5701566924624L1283.1974994897844,337.5701566924624L1295.189999485016,337.5701566924624L1307.1824994802475,337.5701566924624" fill="none"></path></g><g><path style="fill: none;" stroke="rgb(51, 187, 238)" stroke-width="2px" d="M119.92499995231628,139.42431139035455L131.9174999475479,254.23984136767535L143.90999994277954,309.10701059062075L155.90249993801118,323.6348651768405L167.8949999332428,335.9474824206445L179.88749992847443,338.1506730580272L191.87999992370607,338.0010367189935L203.87249991893768,342.0235746186047L215.86499991416932,343.80958488040494L227.85749990940093,342.730897309421L239.84999990463257,343.74956461019656L251.84249989986418,344.0849433764374L263.8349998950958,344.45983385677533L275.8274998903275,343.4364239065654L287.81999988555907,345.77090780335413L299.8124998807907,341.80947162884996L311.80499987602235,342.3684246036073L323.797499871254,342.48375886819997L335.7899998664856,344.0311575136854L347.7824998617172,341.0648680409177L359.77499985694885,342.7618013846632L371.7674998521805,335.5596869354069L383.75999984741213,334.1485891541121L395.7524998426438,334.81638751740195L407.74499983787535,335.1379173248911L419.737499833107,330.17052004633115L431.72999982833863,327.5852046868767L443.7224998235703,329.90792252743535L455.71499981880186,327.1329422575825L467.7074998140335,329.9987908457929L479.69999980926514,321.11926864142L491.6924998044968,316.39570479225665L503.68499979972836,311.69917005550593L515.67749979496,312.0653396694605L527.6699997901916,302.78182281654176L539.6624997854233,306.3766666072065L551.654999780655,302.64466379915217L563.6474997758866,304.2920644991879L575.6399997711181,294.1867058703988L587.6324997663498,293.640796648264L599.6249997615814,279.8156473577128L611.617499756813,267.0483271327037L623.6099997520447,264.07165167421107L635.6024997472763,265.4461329634473L647.594999742508,252.11774393424184L659.5874997377396,250.84576582526108L671.5799997329711,250.247380043674L683.5724997282028,244.88562829661603L695.5649997234344,249.57543978218928L707.557499718666,240.77086716166696L719.5499997138977,234.01396452803544L731.5424997091293,203.6885206770256L743.534999704361,212.2621044459244L755.5274996995926,186.5549169758094L767.5199996948243,191.96264496617246L779.5124996900558,191.7276385906342L791.5049996852875,187.3286094785002L803.4974996805191,184.2721936796897L815.4899996757507,174.91571840474379L827.4824996709823,180.12043940981505L839.474999666214,167.4094630803631L851.4674996614456,168.28588404502432L863.4599996566773,168.58250496957336L875.4524996519089,167.008874644412L887.4449996471405,155.52992646650785L899.4374996423721,165.90919950033705L911.4299996376037,144.0212223287676L923.4224996328354,153.86689684750456L935.414999628067,139.73688976970527L947.4074996232987,139.01202707870763L959.3999996185303,146.2738517424789L971.392499613762,123.13871499751443L983.3849996089936,130.51841831857962L995.3774996042251,122.18663692361699L1007.3699995994567,124.26512357175127L1019.3624995946884,121.21531603657633L1031.35499958992,110.1695658228474L1043.3474995851516,110.35803275079348L1055.3399995803832,111.06429092683999L1067.332499575615,104.30574561403773L1079.3249995708466,104.60172824039466L1091.3174995660781,95.04017151103272L1103.30999956131,89.59205238654516L1115.3024995565415,96.03032219473937L1127.2949995517731,85.29470980845036L1139.2874995470047,95.78938340071011L1151.2799995422363,84.10266916128802L1163.2724995374679,66.90323626564577L1175.2649995326997,88.6163760530174L1187.2574995279313,73.6670944722232L1199.2499995231628,66.28986925002135L1211.2424995183944,64.62036278171621L1223.234999513626,50.071125206062106L1235.2274995088576,60.81708177775789L1247.2199995040894,58.71114830736468L1259.212499499321,46.00253743591867L1271.2049994945526,49.024334944547604L1283.1974994897844,49.64288343961351L1295.189999485016,36.39252636438829L1307.1824994802475,34.491392746267536" fill="none"></path></g></g></g></g></g></g><g transform="translate(61, 377)" clip-path="url(#clip_1)"><clipPath id="clip_1"><rect width="1439" height="22"></rect></clipPath><g><g><line x1="0" y1="0" x2="0" y2="5" style="visibility: inherit;" fill="rgb(0, 0, 0)" stroke="rgb(204, 204, 204)" stroke-width="1px"></line><line x1="119.92499995231628" y1="0" x2="119.92499995231628" y2="5" style="visibility: inherit;" fill="rgb(0, 0, 0)" stroke="rgb(204, 204, 204)" stroke-width="1px"></line><line x1="239.84999990463257" y1="0" x2="239.84999990463257" y2="5" style="visibility: inherit;" fill="rgb(0, 0, 0)" stroke="rgb(204, 204, 204)" stroke-width="1px"></line><line x1="359.77499985694885" y1="0" x2="359.77499985694885" y2="5" style="visibility: inherit;" fill="rgb(0, 0, 0)" stroke="rgb(204, 204, 204)" stroke-width="1px"></line><line x1="479.69999980926514" y1="0" x2="479.69999980926514" y2="5" style="visibility: inherit;" fill="rgb(0, 0, 0)" stroke="rgb(204, 204, 204)" stroke-width="1px"></line><line x1="599.6249997615814" y1="0" x2="599.6249997615814" y2="5" style="visibility: inherit;" fill="rgb(0, 0, 0)" stroke="rgb(204, 204, 204)" stroke-width="1px"></line><line x1="719.5499997138977" y1="0" x2="719.5499997138977" y2="5" style="visibility: inherit;" fill="rgb(0, 0, 0)" stroke="rgb(204, 204, 204)" stroke-width="1px"></line><line x1="839.474999666214" y1="0" x2="839.474999666214" y2="5" style="visibility: inherit;" fill="rgb(0, 0, 0)" stroke="rgb(204, 204, 204)" stroke-width="1px"></line><line x1="959.3999996185303" y1="0" x2="959.3999996185303" y2="5" style="visibility: inherit;" fill="rgb(0, 0, 0)" stroke="rgb(204, 204, 204)" stroke-width="1px"></line><line x1="1079.3249995708466" y1="0" x2="1079.3249995708466" y2="5" style="visibility: inherit;" fill="rgb(0, 0, 0)" stroke="rgb(204, 204, 204)" stroke-width="1px"></line><line x1="1199.2499995231628" y1="0" x2="1199.2499995231628" y2="5" style="visibility: inherit;" fill="rgb(0, 0, 0)" stroke="rgb(204, 204, 204)" stroke-width="1px"></line><line x1="1319.1749994754791" y1="0" x2="1319.1749994754791" y2="5" style="visibility: inherit;" fill="rgb(0, 0, 0)" stroke="rgb(204, 204, 204)" stroke-width="1px"></line><line x1="1439.0999994277954" y1="0" x2="1439.0999994277954" y2="5" style="visibility: inherit;" fill="rgb(0, 0, 0)" stroke="rgb(204, 204, 204)" stroke-width="1px"></line></g><g transform="translate(0, 8)"><text style="text-anchor: middle; visibility: hidden; font-family: &quot;Helvetica Neue&quot;, sans-serif; font-size: 12px; font-weight: 200;" x="0" y="0" dx="0em" dy="0.95em" fill="rgb(50, 49, 63)" stroke="none" stroke-width="1px">-10</text><text style="text-anchor: middle; visibility: hidden; font-family: &quot;Helvetica Neue&quot;, sans-serif; font-size: 12px; font-weight: 200;" x="119.92499995231628" y="0" dx="0em" dy="0.95em" fill="rgb(50, 49, 63)" stroke="none" stroke-width="1px">0</text><text style="text-anchor: middle; visibility: hidden; font-family: &quot;Helvetica Neue&quot;, sans-serif; font-size: 12px; font-weight: 200;" x="239.84999990463257" y="0" dx="0em" dy="0.95em" fill="rgb(50, 49, 63)" stroke="none" stroke-width="1px">10</text><text style="text-anchor: middle; visibility: hidden; font-family: &quot;Helvetica Neue&quot;, sans-serif; font-size: 12px; font-weight: 200;" x="359.77499985694885" y="0" dx="0em" dy="0.95em" fill="rgb(50, 49, 63)" stroke="none" stroke-width="1px">20</text><text style="text-anchor: middle; visibility: hidden; font-family: &quot;Helvetica Neue&quot;, sans-serif; font-size: 12px; font-weight: 200;" x="479.69999980926514" y="0" dx="0em" dy="0.95em" fill="rgb(50, 49, 63)" stroke="none" stroke-width="1px">30</text><text style="text-anchor: middle; visibility: hidden; font-family: &quot;Helvetica Neue&quot;, sans-serif; font-size: 12px; font-weight: 200;" x="599.6249997615814" y="0" dx="0em" dy="0.95em" fill="rgb(50, 49, 63)" stroke="none" stroke-width="1px">40</text><text style="text-anchor: middle; visibility: hidden; font-family: &quot;Helvetica Neue&quot;, sans-serif; font-size: 12px; font-weight: 200;" x="719.5499997138977" y="0" dx="0em" dy="0.95em" fill="rgb(50, 49, 63)" stroke="none" stroke-width="1px">50</text><text style="text-anchor: middle; visibility: hidden; font-family: &quot;Helvetica Neue&quot;, sans-serif; font-size: 12px; font-weight: 200;" x="839.474999666214" y="0" dx="0em" dy="0.95em" fill="rgb(50, 49, 63)" stroke="none" stroke-width="1px">60</text><text style="text-anchor: middle; visibility: hidden; font-family: &quot;Helvetica Neue&quot;, sans-serif; font-size: 12px; font-weight: 200;" x="959.3999996185303" y="0" dx="0em" dy="0.95em" fill="rgb(50, 49, 63)" stroke="none" stroke-width="1px">70</text><text style="text-anchor: middle; visibility: hidden; font-family: &quot;Helvetica Neue&quot;, sans-serif; font-size: 12px; font-weight: 200;" x="1079.3249995708466" y="0" dx="0em" dy="0.95em" fill="rgb(50, 49, 63)" stroke="none" stroke-width="1px">80</text><text style="text-anchor: middle; visibility: hidden; font-family: &quot;Helvetica Neue&quot;, sans-serif; font-size: 12px; font-weight: 200;" x="1199.2499995231628" y="0" dx="0em" dy="0.95em" fill="rgb(50, 49, 63)" stroke="none" stroke-width="1px">90</text><text style="text-anchor: middle; visibility: hidden; font-family: &quot;Helvetica Neue&quot;, sans-serif; font-size: 12px; font-weight: 200;" x="1319.1749994754791" y="0" dx="0em" dy="0.95em" fill="rgb(50, 49, 63)" stroke="none" stroke-width="1px">100</text><text style="text-anchor: middle; visibility: hidden; font-family: &quot;Helvetica Neue&quot;, sans-serif; font-size: 12px; font-weight: 200;" x="1439.0999994277954" y="0" dx="0em" dy="0.95em" fill="rgb(50, 49, 63)" stroke="none" stroke-width="1px">110</text></g><line x1="0" y1="0" x2="1439.0999994277954" y2="0" fill="rgb(0, 0, 0)" stroke="rgb(204, 204, 204)" stroke-width="1px"></line></g></g></g></g></svg>