<svg viewBox="0 0 1501 400" xmlns="http://www.w3.org/2000/svg"><g><g><g><g><g><line x1="41.140000343322754" y1="377.95999908447266" x2="36.140000343322754" y2="377.95999908447266" style="visibility: inherit;" fill="rgb(0, 0, 0)" stroke="rgb(204, 204, 204)" stroke-width="1px"></line><line x1="41.140000343322754" y1="346.4633324940999" x2="36.140000343322754" y2="346.4633324940999" style="visibility: inherit;" fill="rgb(0, 0, 0)" stroke="rgb(204, 204, 204)" stroke-width="1px"></line><line x1="41.140000343322754" y1="314.96666590372723" x2="36.140000343322754" y2="314.96666590372723" style="visibility: inherit;" fill="rgb(0, 0, 0)" stroke="rgb(204, 204, 204)" stroke-width="1px"></line><line x1="41.140000343322754" y1="283.4699993133545" x2="36.140000343322754" y2="283.4699993133545" style="visibility: inherit;" fill="rgb(0, 0, 0)" stroke="rgb(204, 204, 204)" stroke-width="1px"></line><line x1="41.140000343322754" y1="251.97333272298178" x2="36.140000343322754" y2="251.97333272298178" style="visibility: inherit;" fill="rgb(0, 0, 0)" stroke="rgb(204, 204, 204)" stroke-width="1px"></line><line x1="41.140000343322754" y1="220.47666613260904" x2="36.140000343322754" y2="220.47666613260904" style="visibility: inherit;" fill="rgb(0, 0, 0)" stroke="rgb(204, 204, 204)" stroke-width="1px"></line><line x1="41.140000343322754" y1="188.97999954223633" x2="36.140000343322754" y2="188.97999954223633" style="visibility: inherit;" fill="rgb(0, 0, 0)" stroke="rgb(204, 204, 204)" stroke-width="1px"></line><line x1="41.140000343322754" y1="157.4833329518636" x2="36.140000343322754" y2="157.4833329518636" style="visibility: inherit;" fill="rgb(0, 0, 0)" stroke="rgb(204, 204, 204)" stroke-width="1px"></line><line x1="41.140000343322754" y1="125.9866663614909" x2="36.140000343322754" y2="125.9866663614909" style="visibility: inherit;" fill="rgb(0, 0, 0)" stroke="rgb(204, 204, 204)" stroke-width="1px"></line><line x1="41.140000343322754" y1="94.48999977111816" x2="36.140000343322754" y2="94.48999977111816" style="visibility: inherit;" fill="rgb(0, 0, 0)" stroke="rgb(204, 204, 204)" stroke-width="1px"></line><line x1="41.140000343322754" y1="62.993333180745424" x2="36.140000343322754" y2="62.993333180745424" style="visibility: inherit;" fill="rgb(0, 0, 0)" stroke="rgb(204, 204, 204)" stroke-width="1px"></line><line x1="41.140000343322754" y1="31.49666659037274" x2="36.140000343322754" y2="31.49666659037274" style="visibility: inherit;" fill="rgb(0, 0, 0)" stroke="rgb(204, 204, 204)" stroke-width="1px"></line><line x1="41.140000343322754" y1="0" x2="36.140000343322754" y2="0" style="visibility: inherit;" fill="rgb(0, 0, 0)" stroke="rgb(204, 204, 204)" stroke-width="1px"></line></g><g transform="translate(31.140000343322754, 0)"><text style="text-anchor: end; visibility: hidden; font-family: &quot;Helvetica Neue&quot;, sans-serif; font-size: 12px; font-weight: 200;" x="0" y="377.95999908447266" dx="0em" dy="0.3em" fill="rgb(50, 49, 63)" stroke="none" stroke-width="1px">-20</text><text style="text-anchor: end; visibility: inherit; font-family: &quot;Helvetica Neue&quot;, sans-serif; font-size: 12px; font-weight: 200;" x="0" y="346.4633324940999" dx="0em" dy="0.3em" fill="rgb(50, 49, 63)" stroke="none" stroke-width="1px">0</text><text style="text-anchor: end; visibility: inherit; font-family: &quot;Helvetica Neue&quot;, sans-serif; font-size: 12px; font-weight: 200;" x="0" y="314.96666590372723" dx="0em" dy="0.3em" fill="rgb(50, 49, 63)" stroke="none" stroke-width="1px">20</text><text style="text-anchor: end; visibility: inherit; font-family: &quot;Helvetica Neue&quot;, sans-serif; font-size: 12px; font-weight: 200;" x="0" y="283.4699993133545" dx="0em" dy="0.3em" fill="rgb(50, 49, 63)" stroke="none" stroke-width="1px">40</text><text style="text-anchor: end; visibility: inherit; font-family: &quot;Helvetica Neue&quot;, sans-serif; font-size: 12px; font-weight: 200;" x="0" y="251.97333272298178" dx="0em" dy="0.3em" fill="rgb(50, 49, 63)" stroke="none" stroke-width="1px">60</text><text style="text-anchor: end; visibility: inherit; font-family: &quot;Helvetica Neue&quot;, sans-serif; font-size: 12px; font-weight: 200;" x="0" y="220.47666613260904" dx="0em" dy="0.3em" fill="rgb(50, 49, 63)" stroke="none" stroke-width="1px">80</text><text style="text-anchor: end; visibility: inherit; font-family: &quot;Helvetica Neue&quot;, sans-serif; font-size: 12px; font-weight: 200;" x="0" y="188.97999954223633" dx="0em" dy="0.3em" fill="rgb(50, 49, 63)" stroke="none" stroke-width="1px">100</text><text style="text-anchor: end; visibility: inherit; font-family: &quot;Helvetica Neue&quot;, sans-serif; font-size: 12px; font-weight: 200;" x="0" y="157.4833329518636" dx="0em" dy="0.3em" fill="rgb(50, 49, 63)" stroke="none" stroke-width="1px">120</text><text style="text-anchor: end; visibility: inherit; font-family: &quot;Helvetica Neue&quot;, sans-serif; font-size: 12px; font-weight: 200;" x="0" y="125.9866663614909" dx="0em" dy="0.3em" fill="rgb(50, 49, 63)" stroke="none" stroke-width="1px">140</text><text style="text-anchor: end; visibility: inherit; font-family: &quot;Helvetica Neue&quot;, sans-serif; font-size: 12px; font-weight: 200;" x="0" y="94.48999977111816" dx="0em" dy="0.3em" fill="rgb(50, 49, 63)" stroke="none" stroke-width="1px">160</text><text style="text-anchor: end; visibility: inherit; font-family: &quot;Helvetica Neue&quot;, sans-serif; font-size: 12px; font-weight: 200;" x="0" y="62.993333180745424" dx="0em" dy="0.3em" fill="rgb(50, 49, 63)" stroke="none" stroke-width="1px">180</text><text style="text-anchor: end; visibility: inherit; font-family: &quot;Helvetica Neue&quot;, sans-serif; font-size: 12px; font-weight: 200;" x="0" y="31.49666659037274" dx="0em" dy="0.3em" fill="rgb(50, 49, 63)" stroke="none" stroke-width="1px">200</text><text style="text-anchor: end; visibility: hidden; font-family: &quot;Helvetica Neue&quot;, sans-serif; font-size: 12px; font-weight: 200;" x="0" y="0" dx="0em" dy="0.3em" fill="rgb(50, 49, 63)" stroke="none" stroke-width="1px">220</text></g><line x1="41.140000343322754" y1="0" x2="41.140000343322754" y2="377.95999908447266" fill="rgb(0, 0, 0)" stroke="rgb(204, 204, 204)" stroke-width="1px"></line></g></g><g transform="translate(41, 0)" clip-path="url(#clip_0)"><clipPath id="clip_0"><rect width="1459" height="377"></rect></clipPath><g><g><g><line x1="0" y1="0" x2="0" y2="377.95999908447266" fill="rgb(0, 0, 0)" stroke="rgb(60, 60, 60)" stroke-width="1px" opacity="0.25"></line><line x1="121.65499997138977" y1="0" x2="121.65499997138977" y2="377.95999908447266" fill="rgb(0, 0, 0)" stroke="rgb(60, 60, 60)" stroke-width="1px" opacity="0.25"></line><line x1="243.30999994277954" y1="0" x2="243.30999994277954" y2="377.95999908447266" fill="rgb(0, 0, 0)" stroke="rgb(60, 60, 60)" stroke-width="1px" opacity="0.25"></line><line x1="364.9649999141693" y1="0" x2="364.9649999141693" y2="377.95999908447266" fill="rgb(0, 0, 0)" stroke="rgb(60, 60, 60)" stroke-width="1px" opacity="0.25"></line><line x1="486.6199998855591" y1="0" x2="486.6199998855591" y2="377.95999908447266" fill="rgb(0, 0, 0)" stroke="rgb(60, 60, 60)" stroke-width="1px" opacity="0.25"></line><line x1="608.2749998569489" y1="0" x2="608.2749998569489" y2="377.95999908447266" fill="rgb(0, 0, 0)" stroke="rgb(60, 60, 60)" stroke-width="1px" opacity="0.25"></line><line x1="729.9299998283386" y1="0" x2="729.9299998283386" y2="377.95999908447266" fill="rgb(0, 0, 0)" stroke="rgb(60, 60, 60)" stroke-width="1px" opacity="0.25"></line><line x1="851.5849997997284" y1="0" x2="851.5849997997284" y2="377.95999908447266" fill="rgb(0, 0, 0)" stroke="rgb(60, 60, 60)" stroke-width="1px" opacity="0.25"></line><line x1="973.2399997711182" y1="0" x2="973.2399997711182" y2="377.95999908447266" fill="rgb(0, 0, 0)" stroke="rgb(60, 60, 60)" stroke-width="1px" opacity="0.25"></line><line x1="1094.894999742508" y1="0" x2="1094.894999742508" y2="377.95999908447266" fill="rgb(0, 0, 0)" stroke="rgb(60, 60, 60)" stroke-width="1px" opacity="0.25"></line><line x1="1216.5499997138977" y1="0" x2="1216.5499997138977" y2="377.95999908447266" fill="rgb(0, 0, 0)" stroke="rgb(60, 60, 60)" stroke-width="1px" opacity="0.25"></line><line x1="1338.2049996852875" y1="0" x2="1338.2049996852875" y2="377.95999908447266" fill="rgb(0, 0, 0)" stroke="rgb(60, 60, 60)" stroke-width="1px" opacity="0.25"></line><line x1="1459.8599996566772" y1="0" x2="1459.8599996566772" y2="377.95999908447266" fill="rgb(0, 0, 0)" stroke="rgb(60, 60, 60)" stroke-width="1px" opacity="0.25"></line></g><g><line x1="0" y1="377.95999908447266" x2="1459.8599996566772" y2="377.95999908447266" fill="rgb(0, 0, 0)" stroke="rgb(60, 60, 60)" stroke-width="1px" opacity="0.25"></line><line x1="0" y1="346.4633324940999" x2="1459.8599996566772" y2="346.4633324940999" fill="rgb(0, 0, 0)" stroke="rgb(60, 60, 60)" stroke-width="1px" opacity="0.25"></line><line x1="0" y1="314.96666590372723" x2="1459.8599996566772" y2="314.96666590372723" fill="rgb(0, 0, 0)" stroke="rgb(60, 60, 60)" stroke-width="1px" opacity="0.25"></line><line x1="0" y1="283.4699993133545" x2="1459.8599996566772" y2="283.4699993133545" fill="rgb(0, 0, 0)" stroke="rgb(60, 60, 60)" stroke-width="1px" opacity="0.25"></line><line x1="0" y1="251.97333272298178" x2="1459.8599996566772" y2="251.97333272298178" fill="rgb(0, 0, 0)" stroke="rgb(60, 60, 60)" stroke-width="1px" opacity="0.25"></line><line x1="0" y1="220.47666613260904" x2="1459.8599996566772" y2="220.47666613260904" fill="rgb(0, 0, 0)" stroke="rgb(60, 60, 60)" stroke-width="1px" opacity="0.25"></line><line x1="0" y1="188.97999954223633" x2="1459.8599996566772" y2="188.97999954223633" fill="rgb(0, 0, 0)" stroke="rgb(60, 60, 60)" stroke-width="1px" opacity="0.25"></line><line x1="0" y1="157.4833329518636" x2="1459.8599996566772" y2="157.4833329518636" fill="rgb(0, 0, 0)" stroke="rgb(60, 60, 60)" stroke-width="1px" opacity="0.25"></line><line x1="0" y1="125.9866663614909" x2="1459.8599996566772" y2="125.9866663614909" fill="rgb(0, 0, 0)" stroke="rgb(60, 60, 60)" stroke-width="1px" opacity="0.25"></line><line x1="0" y1="94.48999977111816" x2="1459.8599996566772" y2="94.48999977111816" fill="rgb(0, 0, 0)" stroke="rgb(60, 60, 60)" stroke-width="1px" opacity="0.25"></line><line x1="0" y1="62.993333180745424" x2="1459.8599996566772" y2="62.993333180745424" fill="rgb(0, 0, 0)" stroke="rgb(60, 60, 60)" stroke-width="1px" opacity="0.25"></line><line x1="0" y1="31.49666659037274" x2="1459.8599996566772" y2="31.49666659037274" fill="rgb(0, 0, 0)" stroke="rgb(60, 60, 60)" stroke-width="1px" opacity="0.25"></line><line x1="0" y1="0" x2="1459.8599996566772" y2="0" fill="rgb(0, 0, 0)" stroke="rgb(60, 60, 60)" stroke-width="1px" opacity="0.25"></line></g></g></g><g><g><line x1="0" y1="346.4633324940999" x2="1459.8599996566772" y2="346.4633324940999" fill="rgb(0, 0, 0)" stroke="rgb(153, 153, 153)" stroke-width="1.5px"></line></g></g><g><g><line x1="121.65499997138977" y1="0" x2="121.65499997138977" y2="377.95999908447266" fill="rgb(0, 0, 0)" stroke="rgb(153, 153, 153)" stroke-width="1.5px"></line></g></g><g><g><g><g><g><path style="fill: none;" stroke="rgb(238, 51, 119)" stroke-width="2px" d="M121.65499997138977,217.2876983274776L133.82049996852874,225.31369884336553L145.98599996566773,234.4225174235454L158.1514999628067,243.1742734969608L170.3169999599457,250.98633448140487L182.48249995708466,257.8537862317377L194.64799995422362,263.955045858606L206.81349995136262,269.26118118231113L218.97899994850158,273.2392838007471L231.14449994564055,277.4341314589159L243.30999994277954,280.0841953645704L255.4754999399185,281.8066512961942L267.6409999370575,282.83590637996406L279.8064999341965,283.8149326525916L291.97199993133546,282.2944012276198L304.1374999284744,282.16806924944575L316.3029999256134,282.41141555406773L328.4684999227524,283.2670234920332L340.6339999198914,285.0038253632585L352.79949991703035,285.9070067918874L364.9649999141693,284.86838599629226L377.13049991130833,283.9520781530783L389.29599990844724,283.42218552219526L401.46149990558627,282.10809625319723L413.62699990272523,280.1810304568804L425.7924998998642,275.48551070812243L437.95799989700316,218.57853251599104L450.1234998941422,-132.49068764191952L462.2889998912811,219.02175476553796L474.4544998884201,244.84337671099638L486.6199998855591,259.08913503576235L498.78549988269805,265.8411103828206L510.950999879837,266.6920024235553L523.116499876976,258.55289246427685L535.281999874115,262.08377783742264L547.447499871254,260.1302429414894L559.612999868393,267.01494826742334L571.7784998655319,268.9391484803273L583.9439998626709,262.626754830304L596.1094998598098,255.0269512738329L608.2749998569489,194.6548038866548L620.4404998540878,-161.04626840364165L644.7714998483658,-351.5115653106477L656.9369998455048,143.38098596301327L669.1024998426437,256.33416194113767L681.2679998397828,266.8724921259786L693.4334998369217,268.6984755187215L705.5989998340607,260.08356457017305L717.7644998311996,259.50337103799893L729.9299998283386,255.00389444125733L742.0954998254775,244.99881508672868L754.2609998226167,252.77833938403637L766.4264998197556,233.26030407542882L778.5919998168945,218.83578621180956L790.7574998140335,-194.6924229292781L802.9229998111725,252.93715398173515L815.0884998083114,226.3698075075452L827.2539998054505,226.1941238150386L839.4194998025894,71.21843467245924L851.5849997997284,-2307.443987350977L863.7504997968674,-405.065846954809L875.9159997940063,130.0482974322799L888.0814997911452,266.4844068252016L900.2469997882844,269.1711706240829L912.4124997854233,269.8680120244488L924.5779997825622,275.0907330385363L936.7434997797013,275.43647138443447L948.9089997768402,276.8334222719096L961.0744997739791,275.4401539895332L973.2399997711182,276.1429248046338L985.4054997682572,276.91472794467614L997.5709997653961,276.0245047202853L1009.7364997625351,275.9083374530852L1021.901999759674,275.2084322213974L1034.067499756813,274.86220726699514L1046.232999753952,274.68065423487775L1058.3984997510909,276.0027935704864L1070.56399974823,275.72449555874493L1082.729499745369,275.90861379865544L1094.894999742508,275.45553322126676L1107.060499739647,274.36880426640505L1119.225999736786,274.1982089368978L1131.391499733925,-20173.667240521623L1143.5569997310638,269.51782211186526L1155.7224997282028,271.6108154005576L1167.8879997253418,276.12267948785956L1180.0534997224809,275.2030795278526L1192.2189997196197,275.43256049386474L1204.3844997167587,273.97336577045536L1216.5499997138977,275.25274964034213L1228.7154997110367,275.56877482993L1240.8809997081755,276.80400348370677L1253.0464997053145,275.0587009824412L1265.2119997024536,274.8394267799898L1277.3774996995926,274.3260247706336L1289.5429996967316,264.4209464674476L1301.7084996938706,269.5259442686245L1313.8739996910097,279.7212875482447L1326.0394996881485,279.85443805298803" fill="none"></path></g><g><path style="fill: none;" stroke="rgb(51, 187, 238)" stroke-width="2px" d="M121.65499997138977,214.6827328173793L133.82049996852874,243.3398885986918L145.98599996566773,259.7232760292519L158.1514999628067,269.2760738055406L170.3169999599457,279.9556225842727L182.48249995708466,278.9943845558496L194.64799995422362,289.7719218692717L206.81349995136262,293.9365337175517L218.97899994850158,297.10328874559923L231.14449994564055,297.67326349918784L243.30999994277954,302.1596166851005L255.4754999399185,303.3678205443641L267.6409999370575,305.083737298745L279.8064999341965,306.16757964390047L291.97199993133546,308.91324109431145L304.1374999284744,308.0379345231997L316.3029999256134,310.64345873195083L328.4684999227524,309.6915023101794L340.6339999198914,313.035451920101L352.79949991703035,312.5444098718825L364.9649999141693,314.16235311035433L377.13049991130833,318.55577007950194L389.29599990844724,321.06472953400095L401.46149990558627,320.44889643453797L413.62699990272523,321.8839890182149L425.7924998998642,322.738240760257L437.95799989700316,322.39349515578226L450.1234998941422,323.7850002332705L462.2889998912811,323.7630607980006L474.4544998884201,324.379098152885L486.6199998855591,325.5510316560582L498.78549988269805,326.796381466344L510.950999879837,328.4479592648425L523.116499876976,328.01292976032556L535.281999874115,329.47404388394546L547.447499871254,329.96784638410986L559.612999868393,328.7599759417842L571.7784998655319,330.1584782693356L583.9439998626709,330.48335252468274L596.1094998598098,330.40539153444263L608.2749998569489,331.4300358524486L620.4404998540878,330.52570248331784L632.6059998512268,332.3254255375L644.7714998483658,333.20030857898786L656.9369998455048,333.148752107606L669.1024998426437,332.78159848189443L681.2679998397828,333.24875165707056L693.4334998369217,333.6108950174439L705.5989998340607,333.02762263516684L717.7644998311996,334.00477080923156L729.9299998283386,333.7195003284156L742.0954998254775,334.3886253194038L754.2609998226167,334.29554867703655L766.4264998197556,335.23475640656477L778.5919998168945,335.75827356491754L790.7574998140335,335.22406378543906L802.9229998111725,335.58611102561406L815.0884998083114,335.9998874531523L827.2539998054505,335.89658452280906L839.4194998025894,336.1298667422897L851.5849997997284,336.40059829216847L863.7504997968674,336.0969425706038L875.9159997940063,336.03846394306373L888.0814997911452,-2042.3729319220915L900.2469997882844,336.26572513324555L912.4124997854233,335.7811817115613L924.5779997825622,336.47923587849215L936.7434997797013,336.2862603124929L948.9089997768402,336.7176027062769L961.0744997739791,336.6691573753771L973.2399997711182,336.6357128029299L985.4054997682572,337.1933165866172L997.5709997653961,337.1964314817945L1009.7364997625351,337.0319285207958L1021.901999759674,336.96052097564063L1034.067499756813,337.4391327297729L1046.232999753952,337.31609211745285L1058.3984997510909,337.3000618215633L1070.56399974823,335.47887617840763L1082.729499745369,337.4252944249689L1094.894999742508,337.2819071191028L1107.060499739647,338.02823990846446L1119.225999736786,338.1004164152063L1131.391499733925,337.5410419172403L1143.5569997310638,337.88370066209654L1155.7224997282028,336.941575534361L1167.8879997253418,337.5650178992125L1180.0534997224809,337.94853448681243L1192.2189997196197,337.73141172473777L1204.3844997167587,338.218807212932L1216.5499997138977,338.3345997615464L1228.7154997110367,337.49586242026675L1240.8809997081755,338.5936354357293L1253.0464997053145,338.3964718826511L1265.2119997024536,338.65624948461493L1277.3774996995926,338.336521414574L1289.5429996967316,338.4525031998289L1301.7084996938706,338.63405923570247L1313.8739996910097,-3939.491711486069L1326.0394996881485,338.63272706982866" fill="none"></path></g></g></g></g></g><g><g opacity="0.489575"><span fill="rgb(0, 0, 0)" stroke="none" stroke-width="1px">Alt + Scroll to Zoom</span></g></g></g><g transform="translate(41, 377)" clip-path="url(#clip_1)"><clipPath id="clip_1"><rect width="1459" height="22"></rect></clipPath><g><g><line x1="0" y1="0" x2="0" y2="5" style="visibility: inherit;" fill="rgb(0, 0, 0)" stroke="rgb(204, 204, 204)" stroke-width="1px"></line><line x1="121.65499997138977" y1="0" x2="121.65499997138977" y2="5" style="visibility: inherit;" fill="rgb(0, 0, 0)" stroke="rgb(204, 204, 204)" stroke-width="1px"></line><line x1="243.30999994277954" y1="0" x2="243.30999994277954" y2="5" style="visibility: inherit;" fill="rgb(0, 0, 0)" stroke="rgb(204, 204, 204)" stroke-width="1px"></line><line x1="364.9649999141693" y1="0" x2="364.9649999141693" y2="5" style="visibility: inherit;" fill="rgb(0, 0, 0)" stroke="rgb(204, 204, 204)" stroke-width="1px"></line><line x1="486.6199998855591" y1="0" x2="486.6199998855591" y2="5" style="visibility: inherit;" fill="rgb(0, 0, 0)" stroke="rgb(204, 204, 204)" stroke-width="1px"></line><line x1="608.2749998569489" y1="0" x2="608.2749998569489" y2="5" style="visibility: inherit;" fill="rgb(0, 0, 0)" stroke="rgb(204, 204, 204)" stroke-width="1px"></line><line x1="729.9299998283386" y1="0" x2="729.9299998283386" y2="5" style="visibility: inherit;" fill="rgb(0, 0, 0)" stroke="rgb(204, 204, 204)" stroke-width="1px"></line><line x1="851.5849997997284" y1="0" x2="851.5849997997284" y2="5" style="visibility: inherit;" fill="rgb(0, 0, 0)" stroke="rgb(204, 204, 204)" stroke-width="1px"></line><line x1="973.2399997711182" y1="0" x2="973.2399997711182" y2="5" style="visibility: inherit;" fill="rgb(0, 0, 0)" stroke="rgb(204, 204, 204)" stroke-width="1px"></line><line x1="1094.894999742508" y1="0" x2="1094.894999742508" y2="5" style="visibility: inherit;" fill="rgb(0, 0, 0)" stroke="rgb(204, 204, 204)" stroke-width="1px"></line><line x1="1216.5499997138977" y1="0" x2="1216.5499997138977" y2="5" style="visibility: inherit;" fill="rgb(0, 0, 0)" stroke="rgb(204, 204, 204)" stroke-width="1px"></line><line x1="1338.2049996852875" y1="0" x2="1338.2049996852875" y2="5" style="visibility: inherit;" fill="rgb(0, 0, 0)" stroke="rgb(204, 204, 204)" stroke-width="1px"></line><line x1="1459.8599996566772" y1="0" x2="1459.8599996566772" y2="5" style="visibility: inherit;" fill="rgb(0, 0, 0)" stroke="rgb(204, 204, 204)" stroke-width="1px"></line></g><g transform="translate(0, 8)"><text style="text-anchor: middle; visibility: hidden; font-family: &quot;Helvetica Neue&quot;, sans-serif; font-size: 12px; font-weight: 200;" x="0" y="0" dx="0em" dy="0.95em" fill="rgb(50, 49, 63)" stroke="none" stroke-width="1px">-10</text><text style="text-anchor: middle; visibility: inherit; font-family: &quot;Helvetica Neue&quot;, sans-serif; font-size: 12px; font-weight: 200;" x="121.65499997138977" y="0" dx="0em" dy="0.95em" fill="rgb(50, 49, 63)" stroke="none" stroke-width="1px">0</text><text style="text-anchor: middle; visibility: inherit; font-family: &quot;Helvetica Neue&quot;, sans-serif; font-size: 12px; font-weight: 200;" x="243.30999994277954" y="0" dx="0em" dy="0.95em" fill="rgb(50, 49, 63)" stroke="none" stroke-width="1px">10</text><text style="text-anchor: middle; visibility: inherit; font-family: &quot;Helvetica Neue&quot;, sans-serif; font-size: 12px; font-weight: 200;" x="364.9649999141693" y="0" dx="0em" dy="0.95em" fill="rgb(50, 49, 63)" stroke="none" stroke-width="1px">20</text><text style="text-anchor: middle; visibility: inherit; font-family: &quot;Helvetica Neue&quot;, sans-serif; font-size: 12px; font-weight: 200;" x="486.6199998855591" y="0" dx="0em" dy="0.95em" fill="rgb(50, 49, 63)" stroke="none" stroke-width="1px">30</text><text style="text-anchor: middle; visibility: inherit; font-family: &quot;Helvetica Neue&quot;, sans-serif; font-size: 12px; font-weight: 200;" x="608.2749998569489" y="0" dx="0em" dy="0.95em" fill="rgb(50, 49, 63)" stroke="none" stroke-width="1px">40</text><text style="text-anchor: middle; visibility: inherit; font-family: &quot;Helvetica Neue&quot;, sans-serif; font-size: 12px; font-weight: 200;" x="729.9299998283386" y="0" dx="0em" dy="0.95em" fill="rgb(50, 49, 63)" stroke="none" stroke-width="1px">50</text><text style="text-anchor: middle; visibility: inherit; font-family: &quot;Helvetica Neue&quot;, sans-serif; font-size: 12px; font-weight: 200;" x="851.5849997997284" y="0" dx="0em" dy="0.95em" fill="rgb(50, 49, 63)" stroke="none" stroke-width="1px">60</text><text style="text-anchor: middle; visibility: inherit; font-family: &quot;Helvetica Neue&quot;, sans-serif; font-size: 12px; font-weight: 200;" x="973.2399997711182" y="0" dx="0em" dy="0.95em" fill="rgb(50, 49, 63)" stroke="none" stroke-width="1px">70</text><text style="text-anchor: middle; visibility: inherit; font-family: &quot;Helvetica Neue&quot;, sans-serif; font-size: 12px; font-weight: 200;" x="1094.894999742508" y="0" dx="0em" dy="0.95em" fill="rgb(50, 49, 63)" stroke="none" stroke-width="1px">80</text><text style="text-anchor: middle; visibility: inherit; font-family: &quot;Helvetica Neue&quot;, sans-serif; font-size: 12px; font-weight: 200;" x="1216.5499997138977" y="0" dx="0em" dy="0.95em" fill="rgb(50, 49, 63)" stroke="none" stroke-width="1px">90</text><text style="text-anchor: middle; visibility: inherit; font-family: &quot;Helvetica Neue&quot;, sans-serif; font-size: 12px; font-weight: 200;" x="1338.2049996852875" y="0" dx="0em" dy="0.95em" fill="rgb(50, 49, 63)" stroke="none" stroke-width="1px">100</text><text style="text-anchor: middle; visibility: hidden; font-family: &quot;Helvetica Neue&quot;, sans-serif; font-size: 12px; font-weight: 200;" x="1459.8599996566772" y="0" dx="0em" dy="0.95em" fill="rgb(50, 49, 63)" stroke="none" stroke-width="1px">110</text></g><line x1="0" y1="0" x2="1459.8599996566772" y2="0" fill="rgb(0, 0, 0)" stroke="rgb(204, 204, 204)" stroke-width="1px"></line></g></g></g></g></svg>