<svg viewBox="0 0 1501 400" xmlns="http://www.w3.org/2000/svg"><g><g><g><g><g><line x1="41.140000343322754" y1="377.95999908447266" x2="36.140000343322754" y2="377.95999908447266" style="visibility: inherit;" fill="rgb(0, 0, 0)" stroke="rgb(204, 204, 204)" stroke-width="1px"></line><line x1="41.140000343322754" y1="346.4633324940999" x2="36.140000343322754" y2="346.4633324940999" style="visibility: inherit;" fill="rgb(0, 0, 0)" stroke="rgb(204, 204, 204)" stroke-width="1px"></line><line x1="41.140000343322754" y1="314.96666590372723" x2="36.140000343322754" y2="314.96666590372723" style="visibility: inherit;" fill="rgb(0, 0, 0)" stroke="rgb(204, 204, 204)" stroke-width="1px"></line><line x1="41.140000343322754" y1="283.4699993133545" x2="36.140000343322754" y2="283.4699993133545" style="visibility: inherit;" fill="rgb(0, 0, 0)" stroke="rgb(204, 204, 204)" stroke-width="1px"></line><line x1="41.140000343322754" y1="251.97333272298178" x2="36.140000343322754" y2="251.97333272298178" style="visibility: inherit;" fill="rgb(0, 0, 0)" stroke="rgb(204, 204, 204)" stroke-width="1px"></line><line x1="41.140000343322754" y1="220.47666613260904" x2="36.140000343322754" y2="220.47666613260904" style="visibility: inherit;" fill="rgb(0, 0, 0)" stroke="rgb(204, 204, 204)" stroke-width="1px"></line><line x1="41.140000343322754" y1="188.97999954223633" x2="36.140000343322754" y2="188.97999954223633" style="visibility: inherit;" fill="rgb(0, 0, 0)" stroke="rgb(204, 204, 204)" stroke-width="1px"></line><line x1="41.140000343322754" y1="157.4833329518636" x2="36.140000343322754" y2="157.4833329518636" style="visibility: inherit;" fill="rgb(0, 0, 0)" stroke="rgb(204, 204, 204)" stroke-width="1px"></line><line x1="41.140000343322754" y1="125.9866663614909" x2="36.140000343322754" y2="125.9866663614909" style="visibility: inherit;" fill="rgb(0, 0, 0)" stroke="rgb(204, 204, 204)" stroke-width="1px"></line><line x1="41.140000343322754" y1="94.48999977111816" x2="36.140000343322754" y2="94.48999977111816" style="visibility: inherit;" fill="rgb(0, 0, 0)" stroke="rgb(204, 204, 204)" stroke-width="1px"></line><line x1="41.140000343322754" y1="62.993333180745424" x2="36.140000343322754" y2="62.993333180745424" style="visibility: inherit;" fill="rgb(0, 0, 0)" stroke="rgb(204, 204, 204)" stroke-width="1px"></line><line x1="41.140000343322754" y1="31.49666659037274" x2="36.140000343322754" y2="31.49666659037274" style="visibility: inherit;" fill="rgb(0, 0, 0)" stroke="rgb(204, 204, 204)" stroke-width="1px"></line><line x1="41.140000343322754" y1="0" x2="36.140000343322754" y2="0" style="visibility: inherit;" fill="rgb(0, 0, 0)" stroke="rgb(204, 204, 204)" stroke-width="1px"></line></g><g transform="translate(31.140000343322754, 0)"><text style="text-anchor: end; visibility: hidden; font-family: &quot;Helvetica Neue&quot;, sans-serif; font-size: 12px; font-weight: 200;" x="0" y="377.95999908447266" dx="0em" dy="0.3em" fill="rgb(50, 49, 63)" stroke="none" stroke-width="1px">-10</text><text style="text-anchor: end; visibility: inherit; font-family: &quot;Helvetica Neue&quot;, sans-serif; font-size: 12px; font-weight: 200;" x="0" y="346.4633324940999" dx="0em" dy="0.3em" fill="rgb(50, 49, 63)" stroke="none" stroke-width="1px">0</text><text style="text-anchor: end; visibility: inherit; font-family: &quot;Helvetica Neue&quot;, sans-serif; font-size: 12px; font-weight: 200;" x="0" y="314.96666590372723" dx="0em" dy="0.3em" fill="rgb(50, 49, 63)" stroke="none" stroke-width="1px">10</text><text style="text-anchor: end; visibility: inherit; font-family: &quot;Helvetica Neue&quot;, sans-serif; font-size: 12px; font-weight: 200;" x="0" y="283.4699993133545" dx="0em" dy="0.3em" fill="rgb(50, 49, 63)" stroke="none" stroke-width="1px">20</text><text style="text-anchor: end; visibility: inherit; font-family: &quot;Helvetica Neue&quot;, sans-serif; font-size: 12px; font-weight: 200;" x="0" y="251.97333272298178" dx="0em" dy="0.3em" fill="rgb(50, 49, 63)" stroke="none" stroke-width="1px">30</text><text style="text-anchor: end; visibility: inherit; font-family: &quot;Helvetica Neue&quot;, sans-serif; font-size: 12px; font-weight: 200;" x="0" y="220.47666613260904" dx="0em" dy="0.3em" fill="rgb(50, 49, 63)" stroke="none" stroke-width="1px">40</text><text style="text-anchor: end; visibility: inherit; font-family: &quot;Helvetica Neue&quot;, sans-serif; font-size: 12px; font-weight: 200;" x="0" y="188.97999954223633" dx="0em" dy="0.3em" fill="rgb(50, 49, 63)" stroke="none" stroke-width="1px">50</text><text style="text-anchor: end; visibility: inherit; font-family: &quot;Helvetica Neue&quot;, sans-serif; font-size: 12px; font-weight: 200;" x="0" y="157.4833329518636" dx="0em" dy="0.3em" fill="rgb(50, 49, 63)" stroke="none" stroke-width="1px">60</text><text style="text-anchor: end; visibility: inherit; font-family: &quot;Helvetica Neue&quot;, sans-serif; font-size: 12px; font-weight: 200;" x="0" y="125.9866663614909" dx="0em" dy="0.3em" fill="rgb(50, 49, 63)" stroke="none" stroke-width="1px">70</text><text style="text-anchor: end; visibility: inherit; font-family: &quot;Helvetica Neue&quot;, sans-serif; font-size: 12px; font-weight: 200;" x="0" y="94.48999977111816" dx="0em" dy="0.3em" fill="rgb(50, 49, 63)" stroke="none" stroke-width="1px">80</text><text style="text-anchor: end; visibility: inherit; font-family: &quot;Helvetica Neue&quot;, sans-serif; font-size: 12px; font-weight: 200;" x="0" y="62.993333180745424" dx="0em" dy="0.3em" fill="rgb(50, 49, 63)" stroke="none" stroke-width="1px">90</text><text style="text-anchor: end; visibility: inherit; font-family: &quot;Helvetica Neue&quot;, sans-serif; font-size: 12px; font-weight: 200;" x="0" y="31.49666659037274" dx="0em" dy="0.3em" fill="rgb(50, 49, 63)" stroke="none" stroke-width="1px">100</text><text style="text-anchor: end; visibility: hidden; font-family: &quot;Helvetica Neue&quot;, sans-serif; font-size: 12px; font-weight: 200;" x="0" y="0" dx="0em" dy="0.3em" fill="rgb(50, 49, 63)" stroke="none" stroke-width="1px">110</text></g><line x1="41.140000343322754" y1="0" x2="41.140000343322754" y2="377.95999908447266" fill="rgb(0, 0, 0)" stroke="rgb(204, 204, 204)" stroke-width="1px"></line></g></g><g transform="translate(41, 0)" clip-path="url(#clip_0)"><clipPath id="clip_0"><rect width="1459" height="377"></rect></clipPath><g><g><g><line x1="0" y1="0" x2="0" y2="377.95999908447266" fill="rgb(0, 0, 0)" stroke="rgb(60, 60, 60)" stroke-width="1px" opacity="0.25"></line><line x1="121.65499997138977" y1="0" x2="121.65499997138977" y2="377.95999908447266" fill="rgb(0, 0, 0)" stroke="rgb(60, 60, 60)" stroke-width="1px" opacity="0.25"></line><line x1="243.30999994277954" y1="0" x2="243.30999994277954" y2="377.95999908447266" fill="rgb(0, 0, 0)" stroke="rgb(60, 60, 60)" stroke-width="1px" opacity="0.25"></line><line x1="364.9649999141693" y1="0" x2="364.9649999141693" y2="377.95999908447266" fill="rgb(0, 0, 0)" stroke="rgb(60, 60, 60)" stroke-width="1px" opacity="0.25"></line><line x1="486.6199998855591" y1="0" x2="486.6199998855591" y2="377.95999908447266" fill="rgb(0, 0, 0)" stroke="rgb(60, 60, 60)" stroke-width="1px" opacity="0.25"></line><line x1="608.2749998569489" y1="0" x2="608.2749998569489" y2="377.95999908447266" fill="rgb(0, 0, 0)" stroke="rgb(60, 60, 60)" stroke-width="1px" opacity="0.25"></line><line x1="729.9299998283386" y1="0" x2="729.9299998283386" y2="377.95999908447266" fill="rgb(0, 0, 0)" stroke="rgb(60, 60, 60)" stroke-width="1px" opacity="0.25"></line><line x1="851.5849997997284" y1="0" x2="851.5849997997284" y2="377.95999908447266" fill="rgb(0, 0, 0)" stroke="rgb(60, 60, 60)" stroke-width="1px" opacity="0.25"></line><line x1="973.2399997711182" y1="0" x2="973.2399997711182" y2="377.95999908447266" fill="rgb(0, 0, 0)" stroke="rgb(60, 60, 60)" stroke-width="1px" opacity="0.25"></line><line x1="1094.894999742508" y1="0" x2="1094.894999742508" y2="377.95999908447266" fill="rgb(0, 0, 0)" stroke="rgb(60, 60, 60)" stroke-width="1px" opacity="0.25"></line><line x1="1216.5499997138977" y1="0" x2="1216.5499997138977" y2="377.95999908447266" fill="rgb(0, 0, 0)" stroke="rgb(60, 60, 60)" stroke-width="1px" opacity="0.25"></line><line x1="1338.2049996852875" y1="0" x2="1338.2049996852875" y2="377.95999908447266" fill="rgb(0, 0, 0)" stroke="rgb(60, 60, 60)" stroke-width="1px" opacity="0.25"></line><line x1="1459.8599996566772" y1="0" x2="1459.8599996566772" y2="377.95999908447266" fill="rgb(0, 0, 0)" stroke="rgb(60, 60, 60)" stroke-width="1px" opacity="0.25"></line></g><g><line x1="0" y1="377.95999908447266" x2="1459.8599996566772" y2="377.95999908447266" fill="rgb(0, 0, 0)" stroke="rgb(60, 60, 60)" stroke-width="1px" opacity="0.25"></line><line x1="0" y1="346.4633324940999" x2="1459.8599996566772" y2="346.4633324940999" fill="rgb(0, 0, 0)" stroke="rgb(60, 60, 60)" stroke-width="1px" opacity="0.25"></line><line x1="0" y1="314.96666590372723" x2="1459.8599996566772" y2="314.96666590372723" fill="rgb(0, 0, 0)" stroke="rgb(60, 60, 60)" stroke-width="1px" opacity="0.25"></line><line x1="0" y1="283.4699993133545" x2="1459.8599996566772" y2="283.4699993133545" fill="rgb(0, 0, 0)" stroke="rgb(60, 60, 60)" stroke-width="1px" opacity="0.25"></line><line x1="0" y1="251.97333272298178" x2="1459.8599996566772" y2="251.97333272298178" fill="rgb(0, 0, 0)" stroke="rgb(60, 60, 60)" stroke-width="1px" opacity="0.25"></line><line x1="0" y1="220.47666613260904" x2="1459.8599996566772" y2="220.47666613260904" fill="rgb(0, 0, 0)" stroke="rgb(60, 60, 60)" stroke-width="1px" opacity="0.25"></line><line x1="0" y1="188.97999954223633" x2="1459.8599996566772" y2="188.97999954223633" fill="rgb(0, 0, 0)" stroke="rgb(60, 60, 60)" stroke-width="1px" opacity="0.25"></line><line x1="0" y1="157.4833329518636" x2="1459.8599996566772" y2="157.4833329518636" fill="rgb(0, 0, 0)" stroke="rgb(60, 60, 60)" stroke-width="1px" opacity="0.25"></line><line x1="0" y1="125.9866663614909" x2="1459.8599996566772" y2="125.9866663614909" fill="rgb(0, 0, 0)" stroke="rgb(60, 60, 60)" stroke-width="1px" opacity="0.25"></line><line x1="0" y1="94.48999977111816" x2="1459.8599996566772" y2="94.48999977111816" fill="rgb(0, 0, 0)" stroke="rgb(60, 60, 60)" stroke-width="1px" opacity="0.25"></line><line x1="0" y1="62.993333180745424" x2="1459.8599996566772" y2="62.993333180745424" fill="rgb(0, 0, 0)" stroke="rgb(60, 60, 60)" stroke-width="1px" opacity="0.25"></line><line x1="0" y1="31.49666659037274" x2="1459.8599996566772" y2="31.49666659037274" fill="rgb(0, 0, 0)" stroke="rgb(60, 60, 60)" stroke-width="1px" opacity="0.25"></line><line x1="0" y1="0" x2="1459.8599996566772" y2="0" fill="rgb(0, 0, 0)" stroke="rgb(60, 60, 60)" stroke-width="1px" opacity="0.25"></line></g></g></g><g><g><line x1="0" y1="346.4633324940999" x2="1459.8599996566772" y2="346.4633324940999" fill="rgb(0, 0, 0)" stroke="rgb(153, 153, 153)" stroke-width="1.5px"></line></g></g><g><g><line x1="121.65499997138977" y1="0" x2="121.65499997138977" y2="377.95999908447266" fill="rgb(0, 0, 0)" stroke="rgb(153, 153, 153)" stroke-width="1.5px"></line></g></g><g><g><g><g><g><path style="fill: none;" stroke="rgb(0, 119, 187)" stroke-width="2px" d="M121.65499997138977,90.46674468951437L133.82049996852874,99.48075270906168L145.98599996566773,111.92716495104833L158.1514999628067,125.15940787452178L170.3169999599457,137.56150870507602L182.48249995708466,148.845479313475L194.64799995422362,160.6045119871194L206.81349995136262,172.01980681649343L218.97899994850158,181.68427223319765L231.14449994564055,190.0816091053028L243.30999994277954,195.32900297280042L255.4754999399185,198.99704586145768L267.6409999370575,201.99343684922522L279.8064999341965,204.68941617212187L291.97199993133546,207.2543235895641L304.1374999284744,210.14304794017178L316.3029999256134,212.16146396998107L328.4684999227524,213.1140271505045L340.6339999198914,216.90723055241858L352.79949991703035,218.77076089763602L364.9649999141693,234.14054882173005L377.13049991130833,234.98173272243292L389.29599990844724,235.4710806521558L401.46149990558627,235.7500334827484L413.62699990272523,235.7968560343623L425.7924998998642,236.32631011684038L437.95799989700316,236.9910533784748L450.1234998941422,237.55530297275013L462.2889998912811,237.34243277851274L474.4544998884201,237.97033797413533L486.6199998855591,237.28164876809072L498.78549988269805,240.286942889229L510.950999879837,239.87536821498387L523.116499876976,240.59526044041291L535.281999874115,241.05001711376002L547.447499871254,241.0913728290936" fill="none"></path></g><g><path style="fill: none;" stroke="rgb(255, 112, 67)" stroke-width="2px" d="M121.65499997138977,72.75727098770147L133.82049996852874,106.3848262549601L145.98599996566773,132.8387629101397L158.1514999628067,151.71326147587047L170.3169999599457,177.19465396429783L182.48249995708466,186.03713548991655L194.64799995422362,202.4921805283353L206.81349995136262,215.5894346482722L218.97899994850158,224.17787048969186L231.14449994564055,233.12656483447063L243.30999994277954,242.93117350034711L255.4754999399185,246.36070012434877L267.6409999370575,252.79037243136543L279.8064999341965,259.06509897866624L291.97199993133546,264.51943362566647L304.1374999284744,267.0315470241733L316.3029999256134,271.9290453471948L328.4684999227524,274.7307628957722L340.6339999198914,278.06048070882787L352.79949991703035,280.08471201063645L364.9649999141693,287.40019202043294L377.13049991130833,298.4915467626374L389.29599990844724,302.9601777869821L401.46149990558627,303.4970271172196L413.62699990272523,304.6360995275871L425.7924998998642,306.03669397133035L437.95799989700316,307.1489848914368L450.1234998941422,307.58844043071144L462.2889998912811,309.94703785745264L474.4544998884201,309.2860522948219L486.6199998855591,312.0733277835995L498.78549988269805,317.7892625616367L510.950999879837,319.6016599650962L523.116499876976,319.96826840905777L535.281999874115,321.06983291578126L547.447499871254,321.61266122273076L559.612999868393,321.13804821903705" fill="none"></path></g><g><path style="fill: none;" stroke="rgb(238, 51, 119)" stroke-width="2px" d="M121.65499997138977,88.11206416085525L133.82049996852874,104.16406519263109L145.98599996566773,122.38170235299089L158.1514999628067,139.88521449982167L170.3169999599457,155.5093364687098L182.48249995708466,169.24423996937549L194.64799995422362,181.44675922311217L206.81349995136262,192.05902987052227L218.97899994850158,200.01523510739426L231.14449994564055,208.40493042373177L243.30999994277954,213.70505823504087L255.4754999399185,217.14997009828852L267.6409999370575,219.20848026582826L279.8064999341965,221.16653281108327L291.97199993133546,218.1254699611396L304.1374999284744,217.87280600479158L316.3029999256134,218.35949861403546L328.4684999227524,220.0707144899665L340.6339999198914,223.54431823241708L352.79949991703035,225.35068108967485L364.9649999141693,223.2734394984846L377.13049991130833,221.44082381205664L389.29599990844724,220.38103855029064L401.46149990558627,217.75286001229446L413.62699990272523,213.89872841966087L425.7924998998642,204.50768892214498L437.95799989700316,90.69373253788217L450.1234998941422,-611.444707777939L462.2889998912811,91.58017703697601L474.4544998884201,143.22342092789285L486.6199998855591,171.71493757742476L498.78549988269805,185.21888827154132L510.950999879837,186.92067235301076L523.116499876976,170.6424524344538L535.281999874115,177.70422318074537L547.447499871254,173.79715338887883L559.612999868393,187.56656404074673L571.7784998655319,191.4149644665546L583.9439998626709,178.79017716650804L596.1094998598098,163.5905700535659L608.2749998569489,42.846275279209635L620.4404998540878,-668.5558693013834L656.9369998455048,-59.701360568073426L669.1024998426437,166.2049913881754L681.2679998397828,187.2816517578574L693.4334998369217,190.93361854334313L705.5989998340607,173.70379664624608L717.7644998311996,172.54340958189786L729.9299998283386,163.54445638841474L742.0954998254775,143.53429767935742L754.2609998226167,159.09334627397283L766.4264998197556,120.05727565675772L778.5919998168945,91.20823992951921L790.7574998140335,-735.8481783526561L802.9229998111725,159.4109754693704L815.0884998083114,106.27628252099043L827.2539998054505,105.9249151359773L839.4194998025894,-204.02646314918138L875.9159997940063,-86.36673762954018L888.0814997911452,186.50548115630323L900.2469997882844,191.87900875406584L912.4124997854233,193.2726915547976L924.5779997825622,203.7181335829727L936.7434997797013,204.40961027476902L948.9089997768402,207.20351204971934L961.0744997739791,204.41697548496643L973.2399997711182,205.82251711516776L985.4054997682572,207.36612339525237L997.5709997653961,205.58567694647064L1009.7364997625351,205.35334241207045L1021.901999759674,203.95353194869483L1034.067499756813,203.26108203989037L1046.232999753952,202.89797597565558L1058.3984997510909,205.54225464687286L1070.56399974823,204.98565862338995L1082.729499745369,205.35389510321087L1094.894999742508,204.4477339484336L1107.060499739647,202.27427603871013L1119.225999736786,201.93308537969568L1131.391499733925,-40693.79781353734L1143.5569997310638,192.5723117296305L1155.7224997282028,196.75829830701525L1167.8879997253418,205.7820264816192L1180.0534997224809,203.94282656160527L1192.2189997196197,204.40178849362954L1204.3844997167587,201.48339904681077L1216.5499997138977,204.04216678658437L1228.7154997110367,204.67421716576015L1240.8809997081755,207.1446744733136L1253.0464997053145,203.6540694707825L1265.2119997024536,203.21552106587964L1277.3774996995926,202.1887170471673L1289.5429996967316,182.37856044079527L1301.7084996938706,192.5885560431491L1313.8739996910097,212.97924260238943L1326.0394996881485,213.2455436118762" fill="none"></path></g><g><path style="fill: none;" stroke="rgb(51, 187, 238)" stroke-width="2px" d="M121.65499997138977,82.90213314065863L133.82049996852874,140.21644470328368L145.98599996566773,172.9832195644039L158.1514999628067,192.08881511698127L170.3169999599457,213.4479126744455L182.48249995708466,211.52543661759918L194.64799995422362,233.08051124444344L206.81349995136262,241.4097349410035L218.97899994850158,247.7432449970985L231.14449994564055,248.88319450427576L243.30999994277954,257.8559008761011L255.4754999399185,260.2723085946283L267.6409999370575,263.70414210339004L279.8064999341965,265.871826793701L291.97199993133546,271.36314969452303L304.1374999284744,269.61253655229945L316.3029999256134,274.8235849698017L328.4684999227524,272.91967212625883L340.6339999198914,279.60757134610213L352.79949991703035,278.62548724966507L364.9649999141693,281.86137372660875L377.13049991130833,290.648207664904L389.29599990844724,295.6661265739019L401.46149990558627,294.43446037497597L413.62699990272523,297.3046455423298L425.7924998998642,299.01314902641406L437.95799989700316,298.3236578174646L450.1234998941422,301.1066679724411L462.2889998912811,301.0627891019012L474.4544998884201,302.2948638116701L486.6199998855591,304.6387308180165L498.78549988269805,307.12943043858803L510.950999879837,310.4325860355851L523.116499876976,309.56252702655115L535.281999874115,312.48475527379094L547.447499871254,313.4723602741198L559.612999868393,311.0566193894685L571.7784998655319,313.8536240445713L583.9439998626709,314.5033725552655L596.1094998598098,314.34745057478534L608.2749998569489,316.3967392107973L620.4404998540878,314.5880724725357L632.6059998512268,318.1875185809001L644.7714998483658,319.9372846638758L656.9369998455048,319.83417172111206L669.1024998426437,319.09986446968895L681.2679998397828,320.03417082004114L693.4334998369217,320.75845754078784L705.5989998340607,319.59191277623376L717.7644998311996,321.5462091243632L729.9299998283386,320.97566816273127L742.0954998254775,322.31391814470766L754.2609998226167,322.1277648599731L766.4264998197556,324.00618031902957L778.5919998168945,325.0532146357352L790.7574998140335,323.98479507677814L802.9229998111725,324.70888955712815L815.0884998083114,325.5364424122047L827.2539998054505,325.32983655151816L839.4194998025894,325.79640099047947L851.5849997997284,326.337864090237L863.7504997968674,325.7305526471077L875.9159997940063,325.61359539202755L888.0814997911452,-4431.209196338283L900.2469997882844,326.0681177723912L912.4124997854233,325.0990309290227L924.5779997825622,326.4951392628844L936.7434997797013,326.10918813088597L948.9089997768402,326.97187291845387L961.0744997739791,326.8749822566542L973.2399997711182,326.80809311175983L985.4054997682572,327.92330067913446L997.5709997653961,327.92953046948907L1009.7364997625351,327.60052454749166L1021.901999759674,327.4577094571813L1034.067499756813,328.41493296544587L1046.232999753952,328.16885174080574L1058.3984997510909,328.13679114902675L1070.56399974823,324.49441986271535L1082.729499745369,328.38725635583785L1094.894999742508,328.1004817441057L1107.060499739647,329.59314732282905L1119.225999736786,329.73750033631273L1131.391499733925,328.6187513403807L1143.5569997310638,329.3040688300931L1155.7224997282028,327.41981857462207L1167.8879997253418,328.66670330432504L1180.0534997224809,329.43373647952495L1192.2189997196197,328.9994909553756L1204.3844997167587,329.97428193176404L1216.5499997138977,330.2058670289928L1228.7154997110367,328.5283923464335L1240.8809997081755,330.7239383773587L1253.0464997053145,330.3296112712023L1265.2119997024536,330.84916647513L1277.3774996995926,330.2097103350481L1289.5429996967316,330.4416739055579L1301.7084996938706,330.8047859773051L1313.8739996910097,-8225.446755466237L1326.0394996881485,330.80212164555746" fill="none"></path></g></g></g></g></g></g><g transform="translate(41, 377)" clip-path="url(#clip_1)"><clipPath id="clip_1"><rect width="1459" height="22"></rect></clipPath><g><g><line x1="0" y1="0" x2="0" y2="5" style="visibility: inherit;" fill="rgb(0, 0, 0)" stroke="rgb(204, 204, 204)" stroke-width="1px"></line><line x1="121.65499997138977" y1="0" x2="121.65499997138977" y2="5" style="visibility: inherit;" fill="rgb(0, 0, 0)" stroke="rgb(204, 204, 204)" stroke-width="1px"></line><line x1="243.30999994277954" y1="0" x2="243.30999994277954" y2="5" style="visibility: inherit;" fill="rgb(0, 0, 0)" stroke="rgb(204, 204, 204)" stroke-width="1px"></line><line x1="364.9649999141693" y1="0" x2="364.9649999141693" y2="5" style="visibility: inherit;" fill="rgb(0, 0, 0)" stroke="rgb(204, 204, 204)" stroke-width="1px"></line><line x1="486.6199998855591" y1="0" x2="486.6199998855591" y2="5" style="visibility: inherit;" fill="rgb(0, 0, 0)" stroke="rgb(204, 204, 204)" stroke-width="1px"></line><line x1="608.2749998569489" y1="0" x2="608.2749998569489" y2="5" style="visibility: inherit;" fill="rgb(0, 0, 0)" stroke="rgb(204, 204, 204)" stroke-width="1px"></line><line x1="729.9299998283386" y1="0" x2="729.9299998283386" y2="5" style="visibility: inherit;" fill="rgb(0, 0, 0)" stroke="rgb(204, 204, 204)" stroke-width="1px"></line><line x1="851.5849997997284" y1="0" x2="851.5849997997284" y2="5" style="visibility: inherit;" fill="rgb(0, 0, 0)" stroke="rgb(204, 204, 204)" stroke-width="1px"></line><line x1="973.2399997711182" y1="0" x2="973.2399997711182" y2="5" style="visibility: inherit;" fill="rgb(0, 0, 0)" stroke="rgb(204, 204, 204)" stroke-width="1px"></line><line x1="1094.894999742508" y1="0" x2="1094.894999742508" y2="5" style="visibility: inherit;" fill="rgb(0, 0, 0)" stroke="rgb(204, 204, 204)" stroke-width="1px"></line><line x1="1216.5499997138977" y1="0" x2="1216.5499997138977" y2="5" style="visibility: inherit;" fill="rgb(0, 0, 0)" stroke="rgb(204, 204, 204)" stroke-width="1px"></line><line x1="1338.2049996852875" y1="0" x2="1338.2049996852875" y2="5" style="visibility: inherit;" fill="rgb(0, 0, 0)" stroke="rgb(204, 204, 204)" stroke-width="1px"></line><line x1="1459.8599996566772" y1="0" x2="1459.8599996566772" y2="5" style="visibility: inherit;" fill="rgb(0, 0, 0)" stroke="rgb(204, 204, 204)" stroke-width="1px"></line></g><g transform="translate(0, 8)"><text style="text-anchor: middle; visibility: hidden; font-family: &quot;Helvetica Neue&quot;, sans-serif; font-size: 12px; font-weight: 200;" x="0" y="0" dx="0em" dy="0.95em" fill="rgb(50, 49, 63)" stroke="none" stroke-width="1px">-10</text><text style="text-anchor: middle; visibility: inherit; font-family: &quot;Helvetica Neue&quot;, sans-serif; font-size: 12px; font-weight: 200;" x="121.65499997138977" y="0" dx="0em" dy="0.95em" fill="rgb(50, 49, 63)" stroke="none" stroke-width="1px">0</text><text style="text-anchor: middle; visibility: inherit; font-family: &quot;Helvetica Neue&quot;, sans-serif; font-size: 12px; font-weight: 200;" x="243.30999994277954" y="0" dx="0em" dy="0.95em" fill="rgb(50, 49, 63)" stroke="none" stroke-width="1px">10</text><text style="text-anchor: middle; visibility: inherit; font-family: &quot;Helvetica Neue&quot;, sans-serif; font-size: 12px; font-weight: 200;" x="364.9649999141693" y="0" dx="0em" dy="0.95em" fill="rgb(50, 49, 63)" stroke="none" stroke-width="1px">20</text><text style="text-anchor: middle; visibility: inherit; font-family: &quot;Helvetica Neue&quot;, sans-serif; font-size: 12px; font-weight: 200;" x="486.6199998855591" y="0" dx="0em" dy="0.95em" fill="rgb(50, 49, 63)" stroke="none" stroke-width="1px">30</text><text style="text-anchor: middle; visibility: inherit; font-family: &quot;Helvetica Neue&quot;, sans-serif; font-size: 12px; font-weight: 200;" x="608.2749998569489" y="0" dx="0em" dy="0.95em" fill="rgb(50, 49, 63)" stroke="none" stroke-width="1px">40</text><text style="text-anchor: middle; visibility: inherit; font-family: &quot;Helvetica Neue&quot;, sans-serif; font-size: 12px; font-weight: 200;" x="729.9299998283386" y="0" dx="0em" dy="0.95em" fill="rgb(50, 49, 63)" stroke="none" stroke-width="1px">50</text><text style="text-anchor: middle; visibility: inherit; font-family: &quot;Helvetica Neue&quot;, sans-serif; font-size: 12px; font-weight: 200;" x="851.5849997997284" y="0" dx="0em" dy="0.95em" fill="rgb(50, 49, 63)" stroke="none" stroke-width="1px">60</text><text style="text-anchor: middle; visibility: inherit; font-family: &quot;Helvetica Neue&quot;, sans-serif; font-size: 12px; font-weight: 200;" x="973.2399997711182" y="0" dx="0em" dy="0.95em" fill="rgb(50, 49, 63)" stroke="none" stroke-width="1px">70</text><text style="text-anchor: middle; visibility: inherit; font-family: &quot;Helvetica Neue&quot;, sans-serif; font-size: 12px; font-weight: 200;" x="1094.894999742508" y="0" dx="0em" dy="0.95em" fill="rgb(50, 49, 63)" stroke="none" stroke-width="1px">80</text><text style="text-anchor: middle; visibility: inherit; font-family: &quot;Helvetica Neue&quot;, sans-serif; font-size: 12px; font-weight: 200;" x="1216.5499997138977" y="0" dx="0em" dy="0.95em" fill="rgb(50, 49, 63)" stroke="none" stroke-width="1px">90</text><text style="text-anchor: middle; visibility: inherit; font-family: &quot;Helvetica Neue&quot;, sans-serif; font-size: 12px; font-weight: 200;" x="1338.2049996852875" y="0" dx="0em" dy="0.95em" fill="rgb(50, 49, 63)" stroke="none" stroke-width="1px">100</text><text style="text-anchor: middle; visibility: hidden; font-family: &quot;Helvetica Neue&quot;, sans-serif; font-size: 12px; font-weight: 200;" x="1459.8599996566772" y="0" dx="0em" dy="0.95em" fill="rgb(50, 49, 63)" stroke="none" stroke-width="1px">110</text></g><line x1="0" y1="0" x2="1459.8599996566772" y2="0" fill="rgb(0, 0, 0)" stroke="rgb(204, 204, 204)" stroke-width="1px"></line></g></g></g></g></svg>