<svg viewBox="0 0 1501 400" xmlns="http://www.w3.org/2000/svg"><g><g><g><g><g><line x1="61.90000057220459" y1="377.95999908447266" x2="56.90000057220459" y2="377.95999908447266" style="visibility: inherit;" fill="rgb(0, 0, 0)" stroke="rgb(204, 204, 204)" stroke-width="1px"></line><line x1="61.90000057220459" y1="343.59999916770244" x2="56.90000057220459" y2="343.59999916770244" style="visibility: inherit;" fill="rgb(0, 0, 0)" stroke="rgb(204, 204, 204)" stroke-width="1px"></line><line x1="61.90000057220459" y1="309.23999925093216" x2="56.90000057220459" y2="309.23999925093216" style="visibility: inherit;" fill="rgb(0, 0, 0)" stroke="rgb(204, 204, 204)" stroke-width="1px"></line><line x1="61.90000057220459" y1="274.87999933416194" x2="56.90000057220459" y2="274.87999933416194" style="visibility: inherit;" fill="rgb(0, 0, 0)" stroke="rgb(204, 204, 204)" stroke-width="1px"></line><line x1="61.90000057220459" y1="240.5199994173917" x2="56.90000057220459" y2="240.5199994173917" style="visibility: inherit;" fill="rgb(0, 0, 0)" stroke="rgb(204, 204, 204)" stroke-width="1px"></line><line x1="61.90000057220459" y1="206.15999950062147" x2="56.90000057220459" y2="206.15999950062147" style="visibility: inherit;" fill="rgb(0, 0, 0)" stroke="rgb(204, 204, 204)" stroke-width="1px"></line><line x1="61.90000057220459" y1="171.79999958385122" x2="56.90000057220459" y2="171.79999958385122" style="visibility: inherit;" fill="rgb(0, 0, 0)" stroke="rgb(204, 204, 204)" stroke-width="1px"></line><line x1="61.90000057220459" y1="137.43999966708103" x2="56.90000057220459" y2="137.43999966708103" style="visibility: inherit;" fill="rgb(0, 0, 0)" stroke="rgb(204, 204, 204)" stroke-width="1px"></line><line x1="61.90000057220459" y1="103.07999975031078" x2="56.90000057220459" y2="103.07999975031078" style="visibility: inherit;" fill="rgb(0, 0, 0)" stroke="rgb(204, 204, 204)" stroke-width="1px"></line><line x1="61.90000057220459" y1="68.7199998335405" x2="56.90000057220459" y2="68.7199998335405" style="visibility: inherit;" fill="rgb(0, 0, 0)" stroke="rgb(204, 204, 204)" stroke-width="1px"></line><line x1="61.90000057220459" y1="34.35999991677028" x2="56.90000057220459" y2="34.35999991677028" style="visibility: inherit;" fill="rgb(0, 0, 0)" stroke="rgb(204, 204, 204)" stroke-width="1px"></line><line x1="61.90000057220459" y1="0" x2="56.90000057220459" y2="0" style="visibility: inherit;" fill="rgb(0, 0, 0)" stroke="rgb(204, 204, 204)" stroke-width="1px"></line></g><g transform="translate(51.90000057220459, 0)"><text style="text-anchor: end; visibility: hidden; font-family: &quot;Helvetica Neue&quot;, sans-serif; font-size: 12px; font-weight: 200;" x="0" y="377.95999908447266" dx="0em" dy="0.3em" fill="rgb(50, 49, 63)" stroke="none" stroke-width="1px">-0.05</text><text style="text-anchor: end; visibility: inherit; font-family: &quot;Helvetica Neue&quot;, sans-serif; font-size: 12px; font-weight: 200;" x="0" y="343.59999916770244" dx="0em" dy="0.3em" fill="rgb(50, 49, 63)" stroke="none" stroke-width="1px">0</text><text style="text-anchor: end; visibility: inherit; font-family: &quot;Helvetica Neue&quot;, sans-serif; font-size: 12px; font-weight: 200;" x="0" y="309.23999925093216" dx="0em" dy="0.3em" fill="rgb(50, 49, 63)" stroke="none" stroke-width="1px">0.05</text><text style="text-anchor: end; visibility: inherit; font-family: &quot;Helvetica Neue&quot;, sans-serif; font-size: 12px; font-weight: 200;" x="0" y="274.87999933416194" dx="0em" dy="0.3em" fill="rgb(50, 49, 63)" stroke="none" stroke-width="1px">0.1</text><text style="text-anchor: end; visibility: inherit; font-family: &quot;Helvetica Neue&quot;, sans-serif; font-size: 12px; font-weight: 200;" x="0" y="240.5199994173917" dx="0em" dy="0.3em" fill="rgb(50, 49, 63)" stroke="none" stroke-width="1px">0.15</text><text style="text-anchor: end; visibility: inherit; font-family: &quot;Helvetica Neue&quot;, sans-serif; font-size: 12px; font-weight: 200;" x="0" y="206.15999950062147" dx="0em" dy="0.3em" fill="rgb(50, 49, 63)" stroke="none" stroke-width="1px">0.2</text><text style="text-anchor: end; visibility: inherit; font-family: &quot;Helvetica Neue&quot;, sans-serif; font-size: 12px; font-weight: 200;" x="0" y="171.79999958385122" dx="0em" dy="0.3em" fill="rgb(50, 49, 63)" stroke="none" stroke-width="1px">0.25</text><text style="text-anchor: end; visibility: inherit; font-family: &quot;Helvetica Neue&quot;, sans-serif; font-size: 12px; font-weight: 200;" x="0" y="137.43999966708103" dx="0em" dy="0.3em" fill="rgb(50, 49, 63)" stroke="none" stroke-width="1px">0.3</text><text style="text-anchor: end; visibility: inherit; font-family: &quot;Helvetica Neue&quot;, sans-serif; font-size: 12px; font-weight: 200;" x="0" y="103.07999975031078" dx="0em" dy="0.3em" fill="rgb(50, 49, 63)" stroke="none" stroke-width="1px">0.35</text><text style="text-anchor: end; visibility: inherit; font-family: &quot;Helvetica Neue&quot;, sans-serif; font-size: 12px; font-weight: 200;" x="0" y="68.7199998335405" dx="0em" dy="0.3em" fill="rgb(50, 49, 63)" stroke="none" stroke-width="1px">0.4</text><text style="text-anchor: end; visibility: inherit; font-family: &quot;Helvetica Neue&quot;, sans-serif; font-size: 12px; font-weight: 200;" x="0" y="34.35999991677028" dx="0em" dy="0.3em" fill="rgb(50, 49, 63)" stroke="none" stroke-width="1px">0.45</text><text style="text-anchor: end; visibility: hidden; font-family: &quot;Helvetica Neue&quot;, sans-serif; font-size: 12px; font-weight: 200;" x="0" y="0" dx="0em" dy="0.3em" fill="rgb(50, 49, 63)" stroke="none" stroke-width="1px">0.5</text></g><line x1="61.90000057220459" y1="0" x2="61.90000057220459" y2="377.95999908447266" fill="rgb(0, 0, 0)" stroke="rgb(204, 204, 204)" stroke-width="1px"></line></g></g><g transform="translate(61, 0)" clip-path="url(#clip_0)"><clipPath id="clip_0"><rect width="1439" height="377"></rect></clipPath><g><g><g><line x1="0" y1="0" x2="0" y2="377.95999908447266" fill="rgb(0, 0, 0)" stroke="rgb(60, 60, 60)" stroke-width="1px" opacity="0.25"></line><line x1="119.92499995231628" y1="0" x2="119.92499995231628" y2="377.95999908447266" fill="rgb(0, 0, 0)" stroke="rgb(60, 60, 60)" stroke-width="1px" opacity="0.25"></line><line x1="239.84999990463257" y1="0" x2="239.84999990463257" y2="377.95999908447266" fill="rgb(0, 0, 0)" stroke="rgb(60, 60, 60)" stroke-width="1px" opacity="0.25"></line><line x1="359.77499985694885" y1="0" x2="359.77499985694885" y2="377.95999908447266" fill="rgb(0, 0, 0)" stroke="rgb(60, 60, 60)" stroke-width="1px" opacity="0.25"></line><line x1="479.69999980926514" y1="0" x2="479.69999980926514" y2="377.95999908447266" fill="rgb(0, 0, 0)" stroke="rgb(60, 60, 60)" stroke-width="1px" opacity="0.25"></line><line x1="599.6249997615814" y1="0" x2="599.6249997615814" y2="377.95999908447266" fill="rgb(0, 0, 0)" stroke="rgb(60, 60, 60)" stroke-width="1px" opacity="0.25"></line><line x1="719.5499997138977" y1="0" x2="719.5499997138977" y2="377.95999908447266" fill="rgb(0, 0, 0)" stroke="rgb(60, 60, 60)" stroke-width="1px" opacity="0.25"></line><line x1="839.474999666214" y1="0" x2="839.474999666214" y2="377.95999908447266" fill="rgb(0, 0, 0)" stroke="rgb(60, 60, 60)" stroke-width="1px" opacity="0.25"></line><line x1="959.3999996185303" y1="0" x2="959.3999996185303" y2="377.95999908447266" fill="rgb(0, 0, 0)" stroke="rgb(60, 60, 60)" stroke-width="1px" opacity="0.25"></line><line x1="1079.3249995708466" y1="0" x2="1079.3249995708466" y2="377.95999908447266" fill="rgb(0, 0, 0)" stroke="rgb(60, 60, 60)" stroke-width="1px" opacity="0.25"></line><line x1="1199.2499995231628" y1="0" x2="1199.2499995231628" y2="377.95999908447266" fill="rgb(0, 0, 0)" stroke="rgb(60, 60, 60)" stroke-width="1px" opacity="0.25"></line><line x1="1319.1749994754791" y1="0" x2="1319.1749994754791" y2="377.95999908447266" fill="rgb(0, 0, 0)" stroke="rgb(60, 60, 60)" stroke-width="1px" opacity="0.25"></line><line x1="1439.0999994277954" y1="0" x2="1439.0999994277954" y2="377.95999908447266" fill="rgb(0, 0, 0)" stroke="rgb(60, 60, 60)" stroke-width="1px" opacity="0.25"></line></g><g><line x1="0" y1="377.95999908447266" x2="1439.0999994277954" y2="377.95999908447266" fill="rgb(0, 0, 0)" stroke="rgb(60, 60, 60)" stroke-width="1px" opacity="0.25"></line><line x1="0" y1="343.59999916770244" x2="1439.0999994277954" y2="343.59999916770244" fill="rgb(0, 0, 0)" stroke="rgb(60, 60, 60)" stroke-width="1px" opacity="0.25"></line><line x1="0" y1="309.23999925093216" x2="1439.0999994277954" y2="309.23999925093216" fill="rgb(0, 0, 0)" stroke="rgb(60, 60, 60)" stroke-width="1px" opacity="0.25"></line><line x1="0" y1="274.87999933416194" x2="1439.0999994277954" y2="274.87999933416194" fill="rgb(0, 0, 0)" stroke="rgb(60, 60, 60)" stroke-width="1px" opacity="0.25"></line><line x1="0" y1="240.5199994173917" x2="1439.0999994277954" y2="240.5199994173917" fill="rgb(0, 0, 0)" stroke="rgb(60, 60, 60)" stroke-width="1px" opacity="0.25"></line><line x1="0" y1="206.15999950062147" x2="1439.0999994277954" y2="206.15999950062147" fill="rgb(0, 0, 0)" stroke="rgb(60, 60, 60)" stroke-width="1px" opacity="0.25"></line><line x1="0" y1="171.79999958385122" x2="1439.0999994277954" y2="171.79999958385122" fill="rgb(0, 0, 0)" stroke="rgb(60, 60, 60)" stroke-width="1px" opacity="0.25"></line><line x1="0" y1="137.43999966708103" x2="1439.0999994277954" y2="137.43999966708103" fill="rgb(0, 0, 0)" stroke="rgb(60, 60, 60)" stroke-width="1px" opacity="0.25"></line><line x1="0" y1="103.07999975031078" x2="1439.0999994277954" y2="103.07999975031078" fill="rgb(0, 0, 0)" stroke="rgb(60, 60, 60)" stroke-width="1px" opacity="0.25"></line><line x1="0" y1="68.7199998335405" x2="1439.0999994277954" y2="68.7199998335405" fill="rgb(0, 0, 0)" stroke="rgb(60, 60, 60)" stroke-width="1px" opacity="0.25"></line><line x1="0" y1="34.35999991677028" x2="1439.0999994277954" y2="34.35999991677028" fill="rgb(0, 0, 0)" stroke="rgb(60, 60, 60)" stroke-width="1px" opacity="0.25"></line><line x1="0" y1="0" x2="1439.0999994277954" y2="0" fill="rgb(0, 0, 0)" stroke="rgb(60, 60, 60)" stroke-width="1px" opacity="0.25"></line></g></g></g><g><g><line x1="0" y1="343.59999916770244" x2="1439.0999994277954" y2="343.59999916770244" fill="rgb(0, 0, 0)" stroke="rgb(153, 153, 153)" stroke-width="1.5px"></line></g></g><g><g><line x1="119.92499995231628" y1="0" x2="119.92499995231628" y2="377.95999908447266" fill="rgb(0, 0, 0)" stroke="rgb(153, 153, 153)" stroke-width="1.5px"></line></g></g><g><g><g><g><g><path style="fill: none;" stroke="rgb(0, 119, 187)" stroke-width="2px" d="M119.92499995231628,95.40737968222612L131.9174999475479,177.5266710153493L143.90999994277954,243.91823686881978L155.90249993801118,293.3936086759992L167.8949999332428,308.6845257106603L179.88749992847443,321.17389309988874L191.87999992370607,333.89835283864323L203.87249991893768,324.3327088248355L215.86499991416932,337.11697957887225L227.85749990940093,330.6948346934211L239.84999990463257,337.11697957887225L251.84249989986418,340.3508262749557L263.8349998950958,340.3508262749557L275.8274998903275,340.3508262749557L287.81999988555907,340.3508262749557L299.8124998807907,340.3508262749557L311.80499987602235,340.3508262749557L323.797499871254,340.3508262749557L335.7899998664856,340.3508262749557L347.7824998617172,340.3508262749557L359.77499985694885,340.3508262749557L371.7674998521805,340.3508262749557L383.75999984741213,340.3508262749557L395.7524998426438,340.3508262749557L407.74499983787535,340.3508262749557L419.737499833107,340.3508262749557L431.72999982833863,340.3508262749557L443.7224998235703,340.3508262749557L455.71499981880186,340.3508262749557L467.7074998140335,340.3508262749557L479.69999980926514,337.11697957887225L491.6924998044968,340.3508262749557L503.68499979972836,343.59999916770244L515.67749979496,343.59999916770244L527.6699997901916,343.59999916770244L539.6624997854233,343.59999916770244" fill="none"></path></g><g><path style="fill: none;" stroke="rgb(255, 112, 67)" stroke-width="2px" d="M119.92499995231628,85.12984352948604L131.9174999475479,167.64322426242293L143.90999994277954,220.28680962608553L155.90249993801118,268.5509798935829L167.8949999332428,287.2161997334813L179.88749992847443,305.28425406774795L191.87999992370607,315.6989176643039L203.87249991893768,323.42599472291585L215.86499991416932,325.3573655845362L227.85749990940093,328.774848238459L239.84999990463257,332.4832566269123L251.84249989986418,331.7132974859732L263.8349998950958,332.3848379577481L275.8274998903275,335.57537104412785L287.81999988555907,336.11619820091124L299.8124998807907,335.5689767554544L311.80499987602235,335.09779364880245L323.797499871254,339.5887494340168L335.7899998664856,336.29324722861077L347.7824998617172,337.002879510341L359.77499985694885,338.30220172079873L371.7674998521805,334.7942585382892L383.75999984741213,336.39227070237877L395.7524998426438,335.1994680227491L407.74499983787535,335.0633530666403L419.737499833107,336.99054213642876L431.72999982833863,333.99914016583773L443.7224998235703,333.1221862904533L455.71499981880186,331.7612914513039L467.7074998140335,334.5388178738715L479.69999980926514,329.9920786240327L491.6924998044968,327.39592574208285L503.68499979972836,328.7082442114683L515.67749979496,326.5918901817536L527.6699997901916,328.47592628306114L539.6624997854233,326.7251814363684L551.654999780655,328.3288877238017" fill="none"></path></g><g><path style="fill: none;" stroke="rgb(238, 51, 119)" stroke-width="2px" d="M119.92499995231628,211.1631664167937L131.9174999475479,318.02976676675786L143.90999994277954,340.3508262749557L155.90249993801118,340.3508262749557L167.8949999332428,343.59999916770244L179.88749992847443,343.59999916770244L191.87999992370607,343.59999916770244L203.87249991893768,343.59999916770244L215.86499991416932,343.59999916770244L227.85749990940093,337.11697957887225L239.84999990463257,343.59999916770244L251.84249989986418,343.59999916770244L263.8349998950958,343.59999916770244L275.8274998903275,343.59999916770244L287.81999988555907,343.59999916770244L299.8124998807907,343.59999916770244L311.80499987602235,343.59999916770244L323.797499871254,343.59999916770244L335.7899998664856,343.59999916770244L347.7824998617172,343.59999916770244L359.77499985694885,340.3508262749557L371.7674998521805,340.3508262749557L383.75999984741213,340.3508262749557L395.7524998426438,340.3508262749557L407.74499983787535,340.3508262749557L419.737499833107,340.3508262749557L431.72999982833863,340.3508262749557L443.7224998235703,340.3508262749557L455.71499981880186,340.3508262749557L467.7074998140335,343.59999916770244L479.69999980926514,340.3508262749557L491.6924998044968,337.11697957887225L503.68499979972836,340.3508262749557L515.67749979496,340.3508262749557L527.6699997901916,340.3508262749557L539.6624997854233,340.3508262749557L551.654999780655,340.3508262749557L563.6474997758866,340.3508262749557L575.6399997711181,340.3508262749557L587.6324997663498,340.3508262749557L599.6249997615814,343.59999916770244L611.617499756813,340.3508262749557L623.6099997520447,340.3508262749557L635.6024997472763,340.3508262749557L647.594999742508,340.3508262749557L659.5874997377396,340.3508262749557L671.5799997329711,340.3508262749557L683.5724997282028,340.3508262749557L695.5649997234344,340.3508262749557L707.557499718666,340.3508262749557L719.5499997138977,340.3508262749557L731.5424997091293,340.3508262749557L743.534999704361,340.3508262749557L755.5274996995926,340.3508262749557L767.5199996948243,340.3508262749557L779.5124996900558,340.3508262749557L791.5049996852875,340.3508262749557L803.4974996805191,340.3508262749557L815.4899996757507,340.3508262749557L827.4824996709823,340.3508262749557L839.474999666214,340.3508262749557L851.4674996614456,340.3508262749557L863.4599996566773,340.3508262749557L875.4524996519089,330.6948346934211L887.4449996471405,333.89835283864323L899.4374996423721,333.89835283864323L911.4299996376037,333.89835283864323L923.4224996328354,337.11697957887225L935.414999628067,333.89835283864323L947.4074996232987,340.3508262749557L959.3999996185303,337.11697957887225L971.392499613762,340.3508262749557L983.3849996089936,340.3508262749557L995.3774996042251,333.89835283864323L1007.3699995994567,340.3508262749557L1019.3624995946884,333.89835283864323L1031.35499958992,340.3508262749557L1043.3474995851516,340.3508262749557L1055.3399995803832,333.89835283864323L1067.332499575615,337.11697957887225L1079.3249995708466,340.3508262749557L1091.3174995660781,337.11697957887225L1103.30999956131,337.11697957887225L1115.3024995565415,333.89835283864323L1127.2949995517731,337.11697957887225L1139.2874995470047,340.3508262749557L1151.2799995422363,340.3508262749557L1163.2724995374679,337.11697957887225L1175.2649995326997,340.3508262749557L1187.2574995279313,337.11697957887225L1199.2499995231628,337.11697957887225L1211.2424995183944,333.89835283864323L1223.234999513626,340.3508262749557L1235.2274995088576,337.11697957887225L1247.2199995040894,337.11697957887225L1259.212499499321,333.89835283864323L1271.2049994945526,333.89835283864323L1283.1974994897844,333.89835283864323L1295.189999485016,333.89835283864323L1307.1824994802475,333.89835283864323" fill="none"></path></g><g><path style="fill: none;" stroke="rgb(51, 187, 238)" stroke-width="2px" d="M119.92499995231628,117.73924887270744L131.9174999475479,242.99255430251193L143.90999994277954,302.84764800027057L155.90249993801118,318.696216639783L167.8949999332428,332.12816272393286L179.88749992847443,334.53164341925947L191.87999992370607,334.36840377667716L203.87249991893768,338.75662693988943L215.86499991416932,340.70500177094425L227.85749990940093,339.52825169350723L239.84999990463257,340.63952511253507L251.84249989986418,341.0053928575251L263.8349998950958,341.41436429062105L275.8274998903275,340.29791707221017L287.81999988555907,342.8446267777979L299.8124998807907,338.52306004197516L311.80499987602235,339.1328269235287L323.797499871254,339.25864612126605L335.7899998664856,340.9467173708866L347.7824998617172,337.7107652187763L359.77499985694885,339.5619652301351L371.7674998521805,331.7051131036736L383.75999984741213,330.1657337058974L395.7524998426438,330.8942410113046L407.74499983787535,331.24500080129275L419.737499833107,325.8260219519546L431.72999982833863,323.00567792345885L443.7224998235703,325.53955193134107L455.71499981880186,322.5123007278652L467.7074998140335,325.6386810059129L479.69999980926514,315.9519295102334L491.6924998044968,310.7989507656916L503.68499979972836,305.6754583255999L515.67749979496,306.0749160862776L527.6699997901916,295.9474431558208L539.6624997854233,299.8690909274551L551.654999780655,295.7978151368503L563.6474997758866,297.5949795368893L575.6399997711181,286.5709519418466L587.6324997663498,285.9754146086086L599.6249997615814,270.893433564371L611.617499756813,256.96544786436107L623.6099997520447,253.71816554600548L635.6024997472763,255.21759967971775L647.594999742508,240.67753892058448L659.5874997377396,239.28992643806006L671.5799997329711,238.63714194905594L683.5724997282028,232.7879582249927L695.5649997234344,237.9041162092544L707.557499718666,228.29912789595733L719.5499997138977,220.92796138654114L731.5424997091293,187.84565900362128L743.534999704361,197.19865947878364L755.5274996995926,169.15445496593088L767.5199996948243,175.05379459178153L779.5124996900558,174.79742400028522L791.5049996852875,169.9984831506845L803.4974996805191,166.66421137016394L815.4899996757507,156.45714743385932L827.4824996709823,162.13502489393707L839.474999666214,148.26850526180766L851.4674996614456,149.2246008596199L863.4599996566773,149.5481873227643L875.4524996519089,147.83149969531556L887.4449996471405,135.30901077396555L899.4374996423721,146.63185408359746L911.4299996376037,122.75406080552165L923.4224996328354,133.4947966441438L935.414999628067,118.08024346836277L947.4074996232987,117.28948416909259L959.3999996185303,125.21147471138855L971.392499613762,99.97314371688185L983.3849996089936,108.02372915804386L995.3774996042251,98.93451309081189L1007.3699995994567,101.20195307059481L1019.3624995946884,97.87489030494936L1031.35499958992,85.82498098088149L1043.3474995851516,86.03058126591355L1055.3399995803832,86.80104473069156L1067.332499575615,79.42808620763452L1079.3249995708466,79.75097634547848L1091.3174995660781,69.32018718617451L1103.30999956131,63.37678450491535L1115.3024995565415,70.40035156839997L1127.2949995517731,58.68877441972103L1139.2874995470047,70.13750924764076L1151.2799995422363,57.388366440998425L1163.2724995374679,38.625348736661465L1175.2649995326997,62.31241032288506L1187.2574995279313,46.00410314383686L1199.2499995231628,37.95622108325301L1211.2424995183944,36.13494129964738L1223.234999513626,20.263045762570243L1235.2274995088576,31.985907477147407L1247.2199995040894,29.688525509445753L1259.212499499321,15.82458637695919L1271.2049994945526,19.121092750008927L1283.1974994897844,19.795872926444474L1295.189999485016,5.340937935289617L1307.1824994802475,3.2669739882488784" fill="none"></path></g></g></g></g></g></g><g transform="translate(61, 377)" clip-path="url(#clip_1)"><clipPath id="clip_1"><rect width="1439" height="22"></rect></clipPath><g><g><line x1="0" y1="0" x2="0" y2="5" style="visibility: inherit;" fill="rgb(0, 0, 0)" stroke="rgb(204, 204, 204)" stroke-width="1px"></line><line x1="119.92499995231628" y1="0" x2="119.92499995231628" y2="5" style="visibility: inherit;" fill="rgb(0, 0, 0)" stroke="rgb(204, 204, 204)" stroke-width="1px"></line><line x1="239.84999990463257" y1="0" x2="239.84999990463257" y2="5" style="visibility: inherit;" fill="rgb(0, 0, 0)" stroke="rgb(204, 204, 204)" stroke-width="1px"></line><line x1="359.77499985694885" y1="0" x2="359.77499985694885" y2="5" style="visibility: inherit;" fill="rgb(0, 0, 0)" stroke="rgb(204, 204, 204)" stroke-width="1px"></line><line x1="479.69999980926514" y1="0" x2="479.69999980926514" y2="5" style="visibility: inherit;" fill="rgb(0, 0, 0)" stroke="rgb(204, 204, 204)" stroke-width="1px"></line><line x1="599.6249997615814" y1="0" x2="599.6249997615814" y2="5" style="visibility: inherit;" fill="rgb(0, 0, 0)" stroke="rgb(204, 204, 204)" stroke-width="1px"></line><line x1="719.5499997138977" y1="0" x2="719.5499997138977" y2="5" style="visibility: inherit;" fill="rgb(0, 0, 0)" stroke="rgb(204, 204, 204)" stroke-width="1px"></line><line x1="839.474999666214" y1="0" x2="839.474999666214" y2="5" style="visibility: inherit;" fill="rgb(0, 0, 0)" stroke="rgb(204, 204, 204)" stroke-width="1px"></line><line x1="959.3999996185303" y1="0" x2="959.3999996185303" y2="5" style="visibility: inherit;" fill="rgb(0, 0, 0)" stroke="rgb(204, 204, 204)" stroke-width="1px"></line><line x1="1079.3249995708466" y1="0" x2="1079.3249995708466" y2="5" style="visibility: inherit;" fill="rgb(0, 0, 0)" stroke="rgb(204, 204, 204)" stroke-width="1px"></line><line x1="1199.2499995231628" y1="0" x2="1199.2499995231628" y2="5" style="visibility: inherit;" fill="rgb(0, 0, 0)" stroke="rgb(204, 204, 204)" stroke-width="1px"></line><line x1="1319.1749994754791" y1="0" x2="1319.1749994754791" y2="5" style="visibility: inherit;" fill="rgb(0, 0, 0)" stroke="rgb(204, 204, 204)" stroke-width="1px"></line><line x1="1439.0999994277954" y1="0" x2="1439.0999994277954" y2="5" style="visibility: inherit;" fill="rgb(0, 0, 0)" stroke="rgb(204, 204, 204)" stroke-width="1px"></line></g><g transform="translate(0, 8)"><text style="text-anchor: middle; visibility: hidden; font-family: &quot;Helvetica Neue&quot;, sans-serif; font-size: 12px; font-weight: 200;" x="0" y="0" dx="0em" dy="0.95em" fill="rgb(50, 49, 63)" stroke="none" stroke-width="1px">-10</text><text style="text-anchor: middle; visibility: hidden; font-family: &quot;Helvetica Neue&quot;, sans-serif; font-size: 12px; font-weight: 200;" x="119.92499995231628" y="0" dx="0em" dy="0.95em" fill="rgb(50, 49, 63)" stroke="none" stroke-width="1px">0</text><text style="text-anchor: middle; visibility: hidden; font-family: &quot;Helvetica Neue&quot;, sans-serif; font-size: 12px; font-weight: 200;" x="239.84999990463257" y="0" dx="0em" dy="0.95em" fill="rgb(50, 49, 63)" stroke="none" stroke-width="1px">10</text><text style="text-anchor: middle; visibility: hidden; font-family: &quot;Helvetica Neue&quot;, sans-serif; font-size: 12px; font-weight: 200;" x="359.77499985694885" y="0" dx="0em" dy="0.95em" fill="rgb(50, 49, 63)" stroke="none" stroke-width="1px">20</text><text style="text-anchor: middle; visibility: hidden; font-family: &quot;Helvetica Neue&quot;, sans-serif; font-size: 12px; font-weight: 200;" x="479.69999980926514" y="0" dx="0em" dy="0.95em" fill="rgb(50, 49, 63)" stroke="none" stroke-width="1px">30</text><text style="text-anchor: middle; visibility: hidden; font-family: &quot;Helvetica Neue&quot;, sans-serif; font-size: 12px; font-weight: 200;" x="599.6249997615814" y="0" dx="0em" dy="0.95em" fill="rgb(50, 49, 63)" stroke="none" stroke-width="1px">40</text><text style="text-anchor: middle; visibility: hidden; font-family: &quot;Helvetica Neue&quot;, sans-serif; font-size: 12px; font-weight: 200;" x="719.5499997138977" y="0" dx="0em" dy="0.95em" fill="rgb(50, 49, 63)" stroke="none" stroke-width="1px">50</text><text style="text-anchor: middle; visibility: hidden; font-family: &quot;Helvetica Neue&quot;, sans-serif; font-size: 12px; font-weight: 200;" x="839.474999666214" y="0" dx="0em" dy="0.95em" fill="rgb(50, 49, 63)" stroke="none" stroke-width="1px">60</text><text style="text-anchor: middle; visibility: hidden; font-family: &quot;Helvetica Neue&quot;, sans-serif; font-size: 12px; font-weight: 200;" x="959.3999996185303" y="0" dx="0em" dy="0.95em" fill="rgb(50, 49, 63)" stroke="none" stroke-width="1px">70</text><text style="text-anchor: middle; visibility: hidden; font-family: &quot;Helvetica Neue&quot;, sans-serif; font-size: 12px; font-weight: 200;" x="1079.3249995708466" y="0" dx="0em" dy="0.95em" fill="rgb(50, 49, 63)" stroke="none" stroke-width="1px">80</text><text style="text-anchor: middle; visibility: hidden; font-family: &quot;Helvetica Neue&quot;, sans-serif; font-size: 12px; font-weight: 200;" x="1199.2499995231628" y="0" dx="0em" dy="0.95em" fill="rgb(50, 49, 63)" stroke="none" stroke-width="1px">90</text><text style="text-anchor: middle; visibility: hidden; font-family: &quot;Helvetica Neue&quot;, sans-serif; font-size: 12px; font-weight: 200;" x="1319.1749994754791" y="0" dx="0em" dy="0.95em" fill="rgb(50, 49, 63)" stroke="none" stroke-width="1px">100</text><text style="text-anchor: middle; visibility: hidden; font-family: &quot;Helvetica Neue&quot;, sans-serif; font-size: 12px; font-weight: 200;" x="1439.0999994277954" y="0" dx="0em" dy="0.95em" fill="rgb(50, 49, 63)" stroke="none" stroke-width="1px">110</text></g><line x1="0" y1="0" x2="1439.0999994277954" y2="0" fill="rgb(0, 0, 0)" stroke="rgb(204, 204, 204)" stroke-width="1px"></line></g></g></g></g></svg>