<svg viewBox="0 0 1501 400" xmlns="http://www.w3.org/2000/svg"><g><g><g><g><g><line x1="51.52000045776367" y1="377.95999908447266" x2="46.52000045776367" y2="377.95999908447266" style="visibility: inherit;" fill="rgb(0, 0, 0)" stroke="rgb(204, 204, 204)" stroke-width="1px"></line><line x1="51.52000045776367" y1="340.16399917602536" x2="46.52000045776367" y2="340.16399917602536" style="visibility: inherit;" fill="rgb(0, 0, 0)" stroke="rgb(204, 204, 204)" stroke-width="1px"></line><line x1="51.52000045776367" y1="302.36799926757817" x2="46.52000045776367" y2="302.36799926757817" style="visibility: inherit;" fill="rgb(0, 0, 0)" stroke="rgb(204, 204, 204)" stroke-width="1px"></line><line x1="51.52000045776367" y1="264.57199935913087" x2="46.52000045776367" y2="264.57199935913087" style="visibility: inherit;" fill="rgb(0, 0, 0)" stroke="rgb(204, 204, 204)" stroke-width="1px"></line><line x1="51.52000045776367" y1="226.7759994506836" x2="46.52000045776367" y2="226.7759994506836" style="visibility: inherit;" fill="rgb(0, 0, 0)" stroke="rgb(204, 204, 204)" stroke-width="1px"></line><line x1="51.52000045776367" y1="188.97999954223636" x2="46.52000045776367" y2="188.97999954223636" style="visibility: inherit;" fill="rgb(0, 0, 0)" stroke="rgb(204, 204, 204)" stroke-width="1px"></line><line x1="51.52000045776367" y1="151.18399963378906" x2="46.52000045776367" y2="151.18399963378906" style="visibility: inherit;" fill="rgb(0, 0, 0)" stroke="rgb(204, 204, 204)" stroke-width="1px"></line><line x1="51.52000045776367" y1="113.38799972534184" x2="46.52000045776367" y2="113.38799972534184" style="visibility: inherit;" fill="rgb(0, 0, 0)" stroke="rgb(204, 204, 204)" stroke-width="1px"></line><line x1="51.52000045776367" y1="75.5919998168946" x2="46.52000045776367" y2="75.5919998168946" style="visibility: inherit;" fill="rgb(0, 0, 0)" stroke="rgb(204, 204, 204)" stroke-width="1px"></line><line x1="51.52000045776367" y1="37.7959999084473" x2="46.52000045776367" y2="37.7959999084473" style="visibility: inherit;" fill="rgb(0, 0, 0)" stroke="rgb(204, 204, 204)" stroke-width="1px"></line><line x1="51.52000045776367" y1="0" x2="46.52000045776367" y2="0" style="visibility: inherit;" fill="rgb(0, 0, 0)" stroke="rgb(204, 204, 204)" stroke-width="1px"></line></g><g transform="translate(41.52000045776367, 0)"><text style="text-anchor: end; visibility: hidden; font-family: &quot;Helvetica Neue&quot;, sans-serif; font-size: 12px; font-weight: 200;" x="0" y="377.95999908447266" dx="0em" dy="0.3em" fill="rgb(50, 49, 63)" stroke="none" stroke-width="1px">0.6</text><text style="text-anchor: end; visibility: inherit; font-family: &quot;Helvetica Neue&quot;, sans-serif; font-size: 12px; font-weight: 200;" x="0" y="340.16399917602536" dx="0em" dy="0.3em" fill="rgb(50, 49, 63)" stroke="none" stroke-width="1px">0.65</text><text style="text-anchor: end; visibility: inherit; font-family: &quot;Helvetica Neue&quot;, sans-serif; font-size: 12px; font-weight: 200;" x="0" y="302.36799926757817" dx="0em" dy="0.3em" fill="rgb(50, 49, 63)" stroke="none" stroke-width="1px">0.7</text><text style="text-anchor: end; visibility: inherit; font-family: &quot;Helvetica Neue&quot;, sans-serif; font-size: 12px; font-weight: 200;" x="0" y="264.57199935913087" dx="0em" dy="0.3em" fill="rgb(50, 49, 63)" stroke="none" stroke-width="1px">0.75</text><text style="text-anchor: end; visibility: inherit; font-family: &quot;Helvetica Neue&quot;, sans-serif; font-size: 12px; font-weight: 200;" x="0" y="226.7759994506836" dx="0em" dy="0.3em" fill="rgb(50, 49, 63)" stroke="none" stroke-width="1px">0.8</text><text style="text-anchor: end; visibility: inherit; font-family: &quot;Helvetica Neue&quot;, sans-serif; font-size: 12px; font-weight: 200;" x="0" y="188.97999954223636" dx="0em" dy="0.3em" fill="rgb(50, 49, 63)" stroke="none" stroke-width="1px">0.85</text><text style="text-anchor: end; visibility: inherit; font-family: &quot;Helvetica Neue&quot;, sans-serif; font-size: 12px; font-weight: 200;" x="0" y="151.18399963378906" dx="0em" dy="0.3em" fill="rgb(50, 49, 63)" stroke="none" stroke-width="1px">0.9</text><text style="text-anchor: end; visibility: inherit; font-family: &quot;Helvetica Neue&quot;, sans-serif; font-size: 12px; font-weight: 200;" x="0" y="113.38799972534184" dx="0em" dy="0.3em" fill="rgb(50, 49, 63)" stroke="none" stroke-width="1px">0.95</text><text style="text-anchor: end; visibility: inherit; font-family: &quot;Helvetica Neue&quot;, sans-serif; font-size: 12px; font-weight: 200;" x="0" y="75.5919998168946" dx="0em" dy="0.3em" fill="rgb(50, 49, 63)" stroke="none" stroke-width="1px">1</text><text style="text-anchor: end; visibility: inherit; font-family: &quot;Helvetica Neue&quot;, sans-serif; font-size: 12px; font-weight: 200;" x="0" y="37.7959999084473" dx="0em" dy="0.3em" fill="rgb(50, 49, 63)" stroke="none" stroke-width="1px">1.05</text><text style="text-anchor: end; visibility: hidden; font-family: &quot;Helvetica Neue&quot;, sans-serif; font-size: 12px; font-weight: 200;" x="0" y="0" dx="0em" dy="0.3em" fill="rgb(50, 49, 63)" stroke="none" stroke-width="1px">1.1</text></g><line x1="51.52000045776367" y1="0" x2="51.52000045776367" y2="377.95999908447266" fill="rgb(0, 0, 0)" stroke="rgb(204, 204, 204)" stroke-width="1px"></line></g></g><g transform="translate(51, 0)" clip-path="url(#clip_0)"><clipPath id="clip_0"><rect width="1449" height="377"></rect></clipPath><g><g><g><line x1="0" y1="0" x2="0" y2="377.95999908447266" fill="rgb(0, 0, 0)" stroke="rgb(60, 60, 60)" stroke-width="1px" opacity="0.25"></line><line x1="120.78999996185303" y1="0" x2="120.78999996185303" y2="377.95999908447266" fill="rgb(0, 0, 0)" stroke="rgb(60, 60, 60)" stroke-width="1px" opacity="0.25"></line><line x1="241.57999992370605" y1="0" x2="241.57999992370605" y2="377.95999908447266" fill="rgb(0, 0, 0)" stroke="rgb(60, 60, 60)" stroke-width="1px" opacity="0.25"></line><line x1="362.3699998855591" y1="0" x2="362.3699998855591" y2="377.95999908447266" fill="rgb(0, 0, 0)" stroke="rgb(60, 60, 60)" stroke-width="1px" opacity="0.25"></line><line x1="483.1599998474121" y1="0" x2="483.1599998474121" y2="377.95999908447266" fill="rgb(0, 0, 0)" stroke="rgb(60, 60, 60)" stroke-width="1px" opacity="0.25"></line><line x1="603.9499998092651" y1="0" x2="603.9499998092651" y2="377.95999908447266" fill="rgb(0, 0, 0)" stroke="rgb(60, 60, 60)" stroke-width="1px" opacity="0.25"></line><line x1="724.7399997711182" y1="0" x2="724.7399997711182" y2="377.95999908447266" fill="rgb(0, 0, 0)" stroke="rgb(60, 60, 60)" stroke-width="1px" opacity="0.25"></line><line x1="845.5299997329712" y1="0" x2="845.5299997329712" y2="377.95999908447266" fill="rgb(0, 0, 0)" stroke="rgb(60, 60, 60)" stroke-width="1px" opacity="0.25"></line><line x1="966.3199996948242" y1="0" x2="966.3199996948242" y2="377.95999908447266" fill="rgb(0, 0, 0)" stroke="rgb(60, 60, 60)" stroke-width="1px" opacity="0.25"></line><line x1="1087.1099996566772" y1="0" x2="1087.1099996566772" y2="377.95999908447266" fill="rgb(0, 0, 0)" stroke="rgb(60, 60, 60)" stroke-width="1px" opacity="0.25"></line><line x1="1207.8999996185303" y1="0" x2="1207.8999996185303" y2="377.95999908447266" fill="rgb(0, 0, 0)" stroke="rgb(60, 60, 60)" stroke-width="1px" opacity="0.25"></line><line x1="1328.6899995803833" y1="0" x2="1328.6899995803833" y2="377.95999908447266" fill="rgb(0, 0, 0)" stroke="rgb(60, 60, 60)" stroke-width="1px" opacity="0.25"></line><line x1="1449.4799995422363" y1="0" x2="1449.4799995422363" y2="377.95999908447266" fill="rgb(0, 0, 0)" stroke="rgb(60, 60, 60)" stroke-width="1px" opacity="0.25"></line></g><g><line x1="0" y1="377.95999908447266" x2="1449.4799995422363" y2="377.95999908447266" fill="rgb(0, 0, 0)" stroke="rgb(60, 60, 60)" stroke-width="1px" opacity="0.25"></line><line x1="0" y1="340.16399917602536" x2="1449.4799995422363" y2="340.16399917602536" fill="rgb(0, 0, 0)" stroke="rgb(60, 60, 60)" stroke-width="1px" opacity="0.25"></line><line x1="0" y1="302.36799926757817" x2="1449.4799995422363" y2="302.36799926757817" fill="rgb(0, 0, 0)" stroke="rgb(60, 60, 60)" stroke-width="1px" opacity="0.25"></line><line x1="0" y1="264.57199935913087" x2="1449.4799995422363" y2="264.57199935913087" fill="rgb(0, 0, 0)" stroke="rgb(60, 60, 60)" stroke-width="1px" opacity="0.25"></line><line x1="0" y1="226.7759994506836" x2="1449.4799995422363" y2="226.7759994506836" fill="rgb(0, 0, 0)" stroke="rgb(60, 60, 60)" stroke-width="1px" opacity="0.25"></line><line x1="0" y1="188.97999954223636" x2="1449.4799995422363" y2="188.97999954223636" fill="rgb(0, 0, 0)" stroke="rgb(60, 60, 60)" stroke-width="1px" opacity="0.25"></line><line x1="0" y1="151.18399963378906" x2="1449.4799995422363" y2="151.18399963378906" fill="rgb(0, 0, 0)" stroke="rgb(60, 60, 60)" stroke-width="1px" opacity="0.25"></line><line x1="0" y1="113.38799972534184" x2="1449.4799995422363" y2="113.38799972534184" fill="rgb(0, 0, 0)" stroke="rgb(60, 60, 60)" stroke-width="1px" opacity="0.25"></line><line x1="0" y1="75.5919998168946" x2="1449.4799995422363" y2="75.5919998168946" fill="rgb(0, 0, 0)" stroke="rgb(60, 60, 60)" stroke-width="1px" opacity="0.25"></line><line x1="0" y1="37.7959999084473" x2="1449.4799995422363" y2="37.7959999084473" fill="rgb(0, 0, 0)" stroke="rgb(60, 60, 60)" stroke-width="1px" opacity="0.25"></line><line x1="0" y1="0" x2="1449.4799995422363" y2="0" fill="rgb(0, 0, 0)" stroke="rgb(60, 60, 60)" stroke-width="1px" opacity="0.25"></line></g></g></g><g><g><line x1="0" y1="831.5119979858398" x2="1449.4799995422363" y2="831.5119979858398" fill="rgb(0, 0, 0)" stroke="rgb(153, 153, 153)" stroke-width="1.5px"></line></g></g><g><g><line x1="120.78999996185303" y1="0" x2="120.78999996185303" y2="377.95999908447266" fill="rgb(0, 0, 0)" stroke="rgb(153, 153, 153)" stroke-width="1.5px"></line></g></g><g><g><g><g><g><path style="fill: none;" stroke="rgb(51, 187, 238)" stroke-width="2px" d="M120.78999996185303,251.78388281581994L132.86899995803833,215.97715649454932L144.94799995422363,243.31892238043002L157.02699995040894,240.55800485228957L169.10599994659424,193.98912044933041L181.18499994277954,259.90582931218324L193.26399993896484,254.37809187497334L205.34299993515015,284.9237241967274L217.42199993133545,307.4396854125196L229.50099992752075,295.6410962735043L241.57999992370605,293.6675383387554L253.65899991989133,344.30775894877917L265.73799991607666,325.79086356592853L277.81699991226196,276.1884707598636L289.89599990844727,334.90436500202105L301.97499990463257,323.60973105911927L314.05399990081787,304.07307546584053L326.1329998970032,342.9922939594424L338.2119998931885,348.5281415383868L350.2909998893738,311.6600680021273L362.3699998855591,338.62372105780815L374.44899988174444,326.7405611630391L386.5279998779297,318.5222391490641L398.60699987411505,331.55226319777813L410.6859998703003,306.0699725862476L422.7649998664856,325.07054781087555L434.8439998626709,306.6643558627009L446.9229998588562,316.3842255624766L459.0019998550415,278.17392356915644L471.0809998512268,317.58619362387327L483.1599998474121,305.7562002138082L495.2389998435974,278.674950102977L507.31799983978266,299.74496316019287L519.396999835968,315.27394715902284L531.4759998321533,291.73975764846347L543.5549998283386,240.01841008888715L555.6339998245239,302.24932987146514L567.7129998207092,249.02819182346394L579.7919998168945,229.3566375393346L591.8709998130798,338.74505778942495L603.9499998092651,220.10607470792894L616.0289998054504,265.12948149069217L628.1079998016357,236.19821793753437L640.186999797821,245.42427011836463L652.2659997940063,230.59136156207006L664.3449997901917,216.05370722125446L676.423999786377,230.7371188315763L688.5029997825623,225.07970923930026L700.5819997787476,232.0652446532875L712.6609997749329,221.08744691414705L724.7399997711182,219.47451994852582L736.8189997673035,204.49170893917182L748.8979997634889,201.068598338409L760.9769997596741,235.2272537465422L773.0559997558594,186.78668380028813L785.1349997520447,220.91789989555292L797.2139997482301,209.1104346569726L809.2929997444153,192.050255898668L821.3719997406006,224.20994159461753L833.4509997367858,177.13345243176428L845.5299997329712,211.83341474433274L857.6089997291565,212.60252651882166L869.6879997253418,205.65330651726782L881.766999721527,200.81970709984563L893.8459997177124,187.73394835487835L905.9249997138977,205.61901864026805L918.003999710083,212.39652891876523L930.0829997062684,175.27375187569925L942.1619997024536,195.9752491037678L954.2409996986389,185.65725645107233L966.3199996948242,217.3269994735718L978.3989996910096,202.89297472158597L990.4779996871948,177.19414332574416L1002.5569996833801,177.42573292860726L1014.6359996795653,197.2984637840953L1026.7149996757507,182.68069926547997L1038.793999671936,188.13066945472457L1050.8729996681213,197.13207070950904L1062.9519996643066,173.9144470646532L1075.030999660492,181.77826577214438L1087.1099996566772,190.83013013105466L1099.1889996528625,180.32790209195701L1111.2679996490479,177.19414332574416L1123.3469996452332,176.6218376573459L1135.4259996414185,188.59596630857033L1147.5049996376038,169.020336978623L1159.583999633789,193.9640691226394L1171.6629996299744,171.24855336383536L1183.7419996261597,162.85397093616376L1195.820999622345,178.36637420078097L1207.8999996185303,165.6323252690334L1219.9789996147156,162.81355539652014L1232.0579996109009,171.1437072537454L1244.1369996070862,175.1931010217839L1256.2159996032715,164.69281040543393L1268.2949995994568,161.65700412883672L1280.373999595642,167.21866899230264L1292.4529995918274,164.45923832348018L1304.5319995880127,172.558296197615L1316.610999584198,167.28039618217082" fill="none"></path></g><g><path style="fill: none;" stroke="rgb(0, 119, 187)" stroke-width="2px" d="M120.78999996185303,327.5653175210953L132.86899995803833,327.5653175210953L144.94799995422363,327.5653175210953L157.02699995040894,75.5919998168946L169.10599994659424,75.5919998168946L181.18499994277954,75.5919998168946L193.26399993896484,75.5919998168946L205.34299993515015,75.5919998168946L217.42199993133545,75.5919998168946L229.50099992752075,75.5919998168946L241.57999992370605,75.5919998168946L253.65899991989133,75.5919998168946L265.73799991607666,75.5919998168946L277.81699991226196,75.5919998168946L289.89599990844727,75.5919998168946L301.97499990463257,75.5919998168946L314.05399990081787,75.5919998168946L326.1329998970032,75.5919998168946L338.2119998931885,75.5919998168946L350.2909998893738,75.5919998168946L362.3699998855591,75.5919998168946L374.44899988174444,75.5919998168946L386.5279998779297,75.5919998168946L398.60699987411505,75.5919998168946L410.6859998703003,75.5919998168946L422.7649998664856,75.5919998168946L434.8439998626709,75.5919998168946L446.9229998588562,75.5919998168946L459.0019998550415,75.5919998168946L471.0809998512268,75.5919998168946L483.1599998474121,75.5919998168946L495.2389998435974,75.5919998168946L507.31799983978266,75.5919998168946L519.396999835968,75.5919998168946L531.4759998321533,75.5919998168946L543.5549998283386,75.5919998168946L555.6339998245239,75.5919998168946L567.7129998207092,75.5919998168946L579.7919998168945,75.5919998168946L591.8709998130798,75.5919998168946L603.9499998092651,75.5919998168946L616.0289998054504,75.5919998168946L628.1079998016357,75.5919998168946L640.186999797821,75.5919998168946L652.2659997940063,75.5919998168946L664.3449997901917,75.5919998168946L676.423999786377,75.5919998168946L688.5029997825623,75.5919998168946L700.5819997787476,75.5919998168946L712.6609997749329,75.5919998168946L724.7399997711182,75.5919998168946L736.8189997673035,75.5919998168946L748.8979997634889,75.5919998168946L760.9769997596741,75.5919998168946L773.0559997558594,75.5919998168946L785.1349997520447,75.5919998168946L797.2139997482301,75.5919998168946L809.2929997444153,75.5919998168946L821.3719997406006,75.5919998168946L833.4509997367858,75.5919998168946L845.5299997329712,75.5919998168946L857.6089997291565,75.5919998168946L869.6879997253418,75.5919998168946L881.766999721527,75.5919998168946L893.8459997177124,75.5919998168946L905.9249997138977,75.5919998168946L918.003999710083,75.5919998168946L930.0829997062684,75.5919998168946L942.1619997024536,75.5919998168946L954.2409996986389,75.5919998168946L966.3199996948242,75.5919998168946L978.3989996910096,75.5919998168946L990.4779996871948,75.5919998168946L1002.5569996833801,75.5919998168946L1014.6359996795653,75.5919998168946L1026.7149996757507,75.5919998168946L1038.793999671936,75.5919998168946L1050.8729996681213,75.5919998168946L1062.9519996643066,75.5919998168946L1075.030999660492,75.5919998168946L1087.1099996566772,75.5919998168946L1099.1889996528625,75.5919998168946L1111.2679996490479,75.5919998168946L1123.3469996452332,75.5919998168946L1135.4259996414185,75.5919998168946L1147.5049996376038,75.5919998168946L1159.583999633789,75.5919998168946L1171.6629996299744,75.5919998168946L1183.7419996261597,75.5919998168946L1195.820999622345,75.5919998168946L1207.8999996185303,75.5919998168946L1219.9789996147156,75.5919998168946L1232.0579996109009,75.5919998168946L1244.1369996070862,75.5919998168946L1256.2159996032715,75.5919998168946L1268.2949995994568,75.5919998168946L1280.373999595642,75.5919998168946L1292.4529995918274,75.5919998168946L1304.5319995880127,75.5919998168946L1316.610999584198,75.5919998168946" fill="none"></path></g></g></g></g></g><g><g opacity="0.0764941"><span fill="rgb(0, 0, 0)" stroke="none" stroke-width="1px">Alt + Scroll to Zoom</span></g></g></g><g transform="translate(51, 377)" clip-path="url(#clip_1)"><clipPath id="clip_1"><rect width="1449" height="22"></rect></clipPath><g><g><line x1="0" y1="0" x2="0" y2="5" style="visibility: inherit;" fill="rgb(0, 0, 0)" stroke="rgb(204, 204, 204)" stroke-width="1px"></line><line x1="120.78999996185303" y1="0" x2="120.78999996185303" y2="5" style="visibility: inherit;" fill="rgb(0, 0, 0)" stroke="rgb(204, 204, 204)" stroke-width="1px"></line><line x1="241.57999992370605" y1="0" x2="241.57999992370605" y2="5" style="visibility: inherit;" fill="rgb(0, 0, 0)" stroke="rgb(204, 204, 204)" stroke-width="1px"></line><line x1="362.3699998855591" y1="0" x2="362.3699998855591" y2="5" style="visibility: inherit;" fill="rgb(0, 0, 0)" stroke="rgb(204, 204, 204)" stroke-width="1px"></line><line x1="483.1599998474121" y1="0" x2="483.1599998474121" y2="5" style="visibility: inherit;" fill="rgb(0, 0, 0)" stroke="rgb(204, 204, 204)" stroke-width="1px"></line><line x1="603.9499998092651" y1="0" x2="603.9499998092651" y2="5" style="visibility: inherit;" fill="rgb(0, 0, 0)" stroke="rgb(204, 204, 204)" stroke-width="1px"></line><line x1="724.7399997711182" y1="0" x2="724.7399997711182" y2="5" style="visibility: inherit;" fill="rgb(0, 0, 0)" stroke="rgb(204, 204, 204)" stroke-width="1px"></line><line x1="845.5299997329712" y1="0" x2="845.5299997329712" y2="5" style="visibility: inherit;" fill="rgb(0, 0, 0)" stroke="rgb(204, 204, 204)" stroke-width="1px"></line><line x1="966.3199996948242" y1="0" x2="966.3199996948242" y2="5" style="visibility: inherit;" fill="rgb(0, 0, 0)" stroke="rgb(204, 204, 204)" stroke-width="1px"></line><line x1="1087.1099996566772" y1="0" x2="1087.1099996566772" y2="5" style="visibility: inherit;" fill="rgb(0, 0, 0)" stroke="rgb(204, 204, 204)" stroke-width="1px"></line><line x1="1207.8999996185303" y1="0" x2="1207.8999996185303" y2="5" style="visibility: inherit;" fill="rgb(0, 0, 0)" stroke="rgb(204, 204, 204)" stroke-width="1px"></line><line x1="1328.6899995803833" y1="0" x2="1328.6899995803833" y2="5" style="visibility: inherit;" fill="rgb(0, 0, 0)" stroke="rgb(204, 204, 204)" stroke-width="1px"></line><line x1="1449.4799995422363" y1="0" x2="1449.4799995422363" y2="5" style="visibility: inherit;" fill="rgb(0, 0, 0)" stroke="rgb(204, 204, 204)" stroke-width="1px"></line></g><g transform="translate(0, 8)"><text style="text-anchor: middle; visibility: hidden; font-family: &quot;Helvetica Neue&quot;, sans-serif; font-size: 12px; font-weight: 200;" x="0" y="0" dx="0em" dy="0.95em" fill="rgb(50, 49, 63)" stroke="none" stroke-width="1px">-10</text><text style="text-anchor: middle; visibility: inherit; font-family: &quot;Helvetica Neue&quot;, sans-serif; font-size: 12px; font-weight: 200;" x="120.78999996185303" y="0" dx="0em" dy="0.95em" fill="rgb(50, 49, 63)" stroke="none" stroke-width="1px">0</text><text style="text-anchor: middle; visibility: inherit; font-family: &quot;Helvetica Neue&quot;, sans-serif; font-size: 12px; font-weight: 200;" x="241.57999992370605" y="0" dx="0em" dy="0.95em" fill="rgb(50, 49, 63)" stroke="none" stroke-width="1px">10</text><text style="text-anchor: middle; visibility: inherit; font-family: &quot;Helvetica Neue&quot;, sans-serif; font-size: 12px; font-weight: 200;" x="362.3699998855591" y="0" dx="0em" dy="0.95em" fill="rgb(50, 49, 63)" stroke="none" stroke-width="1px">20</text><text style="text-anchor: middle; visibility: inherit; font-family: &quot;Helvetica Neue&quot;, sans-serif; font-size: 12px; font-weight: 200;" x="483.1599998474121" y="0" dx="0em" dy="0.95em" fill="rgb(50, 49, 63)" stroke="none" stroke-width="1px">30</text><text style="text-anchor: middle; visibility: inherit; font-family: &quot;Helvetica Neue&quot;, sans-serif; font-size: 12px; font-weight: 200;" x="603.9499998092651" y="0" dx="0em" dy="0.95em" fill="rgb(50, 49, 63)" stroke="none" stroke-width="1px">40</text><text style="text-anchor: middle; visibility: inherit; font-family: &quot;Helvetica Neue&quot;, sans-serif; font-size: 12px; font-weight: 200;" x="724.7399997711182" y="0" dx="0em" dy="0.95em" fill="rgb(50, 49, 63)" stroke="none" stroke-width="1px">50</text><text style="text-anchor: middle; visibility: inherit; font-family: &quot;Helvetica Neue&quot;, sans-serif; font-size: 12px; font-weight: 200;" x="845.5299997329712" y="0" dx="0em" dy="0.95em" fill="rgb(50, 49, 63)" stroke="none" stroke-width="1px">60</text><text style="text-anchor: middle; visibility: inherit; font-family: &quot;Helvetica Neue&quot;, sans-serif; font-size: 12px; font-weight: 200;" x="966.3199996948242" y="0" dx="0em" dy="0.95em" fill="rgb(50, 49, 63)" stroke="none" stroke-width="1px">70</text><text style="text-anchor: middle; visibility: inherit; font-family: &quot;Helvetica Neue&quot;, sans-serif; font-size: 12px; font-weight: 200;" x="1087.1099996566772" y="0" dx="0em" dy="0.95em" fill="rgb(50, 49, 63)" stroke="none" stroke-width="1px">80</text><text style="text-anchor: middle; visibility: inherit; font-family: &quot;Helvetica Neue&quot;, sans-serif; font-size: 12px; font-weight: 200;" x="1207.8999996185303" y="0" dx="0em" dy="0.95em" fill="rgb(50, 49, 63)" stroke="none" stroke-width="1px">90</text><text style="text-anchor: middle; visibility: inherit; font-family: &quot;Helvetica Neue&quot;, sans-serif; font-size: 12px; font-weight: 200;" x="1328.6899995803833" y="0" dx="0em" dy="0.95em" fill="rgb(50, 49, 63)" stroke="none" stroke-width="1px">100</text><text style="text-anchor: middle; visibility: hidden; font-family: &quot;Helvetica Neue&quot;, sans-serif; font-size: 12px; font-weight: 200;" x="1449.4799995422363" y="0" dx="0em" dy="0.95em" fill="rgb(50, 49, 63)" stroke="none" stroke-width="1px">110</text></g><line x1="0" y1="0" x2="1449.4799995422363" y2="0" fill="rgb(0, 0, 0)" stroke="rgb(204, 204, 204)" stroke-width="1px"></line></g></g></g></g></svg>