<svg viewBox="0 0 1501 400" xmlns="http://www.w3.org/2000/svg"><g><g><g><g><g><line x1="30.760000228881836" y1="377.95999908447266" x2="25.760000228881836" y2="377.95999908447266" style="visibility: inherit;" fill="rgb(0, 0, 0)" stroke="rgb(204, 204, 204)" stroke-width="1px"></line><line x1="30.760000228881836" y1="343.59999916770244" x2="25.760000228881836" y2="343.59999916770244" style="visibility: inherit;" fill="rgb(0, 0, 0)" stroke="rgb(204, 204, 204)" stroke-width="1px"></line><line x1="30.760000228881836" y1="309.23999925093216" x2="25.760000228881836" y2="309.23999925093216" style="visibility: inherit;" fill="rgb(0, 0, 0)" stroke="rgb(204, 204, 204)" stroke-width="1px"></line><line x1="30.760000228881836" y1="274.87999933416194" x2="25.760000228881836" y2="274.87999933416194" style="visibility: inherit;" fill="rgb(0, 0, 0)" stroke="rgb(204, 204, 204)" stroke-width="1px"></line><line x1="30.760000228881836" y1="240.5199994173917" x2="25.760000228881836" y2="240.5199994173917" style="visibility: inherit;" fill="rgb(0, 0, 0)" stroke="rgb(204, 204, 204)" stroke-width="1px"></line><line x1="30.760000228881836" y1="206.15999950062147" x2="25.760000228881836" y2="206.15999950062147" style="visibility: inherit;" fill="rgb(0, 0, 0)" stroke="rgb(204, 204, 204)" stroke-width="1px"></line><line x1="30.760000228881836" y1="171.79999958385122" x2="25.760000228881836" y2="171.79999958385122" style="visibility: inherit;" fill="rgb(0, 0, 0)" stroke="rgb(204, 204, 204)" stroke-width="1px"></line><line x1="30.760000228881836" y1="137.43999966708097" x2="25.760000228881836" y2="137.43999966708097" style="visibility: inherit;" fill="rgb(0, 0, 0)" stroke="rgb(204, 204, 204)" stroke-width="1px"></line><line x1="30.760000228881836" y1="103.07999975031072" x2="25.760000228881836" y2="103.07999975031072" style="visibility: inherit;" fill="rgb(0, 0, 0)" stroke="rgb(204, 204, 204)" stroke-width="1px"></line><line x1="30.760000228881836" y1="68.71999983354044" x2="25.760000228881836" y2="68.71999983354044" style="visibility: inherit;" fill="rgb(0, 0, 0)" stroke="rgb(204, 204, 204)" stroke-width="1px"></line><line x1="30.760000228881836" y1="34.35999991677028" x2="25.760000228881836" y2="34.35999991677028" style="visibility: inherit;" fill="rgb(0, 0, 0)" stroke="rgb(204, 204, 204)" stroke-width="1px"></line><line x1="30.760000228881836" y1="0" x2="25.760000228881836" y2="0" style="visibility: inherit;" fill="rgb(0, 0, 0)" stroke="rgb(204, 204, 204)" stroke-width="1px"></line></g><g transform="translate(20.760000228881836, 0)"><text style="text-anchor: end; visibility: hidden; font-family: &quot;Helvetica Neue&quot;, sans-serif; font-size: 12px; font-weight: 200;" x="0" y="377.95999908447266" dx="0em" dy="0.3em" fill="rgb(50, 49, 63)" stroke="none" stroke-width="1px">-5</text><text style="text-anchor: end; visibility: inherit; font-family: &quot;Helvetica Neue&quot;, sans-serif; font-size: 12px; font-weight: 200;" x="0" y="343.59999916770244" dx="0em" dy="0.3em" fill="rgb(50, 49, 63)" stroke="none" stroke-width="1px">0</text><text style="text-anchor: end; visibility: inherit; font-family: &quot;Helvetica Neue&quot;, sans-serif; font-size: 12px; font-weight: 200;" x="0" y="309.23999925093216" dx="0em" dy="0.3em" fill="rgb(50, 49, 63)" stroke="none" stroke-width="1px">5</text><text style="text-anchor: end; visibility: inherit; font-family: &quot;Helvetica Neue&quot;, sans-serif; font-size: 12px; font-weight: 200;" x="0" y="274.87999933416194" dx="0em" dy="0.3em" fill="rgb(50, 49, 63)" stroke="none" stroke-width="1px">10</text><text style="text-anchor: end; visibility: inherit; font-family: &quot;Helvetica Neue&quot;, sans-serif; font-size: 12px; font-weight: 200;" x="0" y="240.5199994173917" dx="0em" dy="0.3em" fill="rgb(50, 49, 63)" stroke="none" stroke-width="1px">15</text><text style="text-anchor: end; visibility: inherit; font-family: &quot;Helvetica Neue&quot;, sans-serif; font-size: 12px; font-weight: 200;" x="0" y="206.15999950062147" dx="0em" dy="0.3em" fill="rgb(50, 49, 63)" stroke="none" stroke-width="1px">20</text><text style="text-anchor: end; visibility: inherit; font-family: &quot;Helvetica Neue&quot;, sans-serif; font-size: 12px; font-weight: 200;" x="0" y="171.79999958385122" dx="0em" dy="0.3em" fill="rgb(50, 49, 63)" stroke="none" stroke-width="1px">25</text><text style="text-anchor: end; visibility: inherit; font-family: &quot;Helvetica Neue&quot;, sans-serif; font-size: 12px; font-weight: 200;" x="0" y="137.43999966708097" dx="0em" dy="0.3em" fill="rgb(50, 49, 63)" stroke="none" stroke-width="1px">30</text><text style="text-anchor: end; visibility: inherit; font-family: &quot;Helvetica Neue&quot;, sans-serif; font-size: 12px; font-weight: 200;" x="0" y="103.07999975031072" dx="0em" dy="0.3em" fill="rgb(50, 49, 63)" stroke="none" stroke-width="1px">35</text><text style="text-anchor: end; visibility: inherit; font-family: &quot;Helvetica Neue&quot;, sans-serif; font-size: 12px; font-weight: 200;" x="0" y="68.71999983354044" dx="0em" dy="0.3em" fill="rgb(50, 49, 63)" stroke="none" stroke-width="1px">40</text><text style="text-anchor: end; visibility: inherit; font-family: &quot;Helvetica Neue&quot;, sans-serif; font-size: 12px; font-weight: 200;" x="0" y="34.35999991677028" dx="0em" dy="0.3em" fill="rgb(50, 49, 63)" stroke="none" stroke-width="1px">45</text><text style="text-anchor: end; visibility: hidden; font-family: &quot;Helvetica Neue&quot;, sans-serif; font-size: 12px; font-weight: 200;" x="0" y="0" dx="0em" dy="0.3em" fill="rgb(50, 49, 63)" stroke="none" stroke-width="1px">50</text></g><line x1="30.760000228881836" y1="0" x2="30.760000228881836" y2="377.95999908447266" fill="rgb(0, 0, 0)" stroke="rgb(204, 204, 204)" stroke-width="1px"></line></g></g><g transform="translate(30, 0)" clip-path="url(#clip_0)"><clipPath id="clip_0"><rect width="1470" height="377"></rect></clipPath><g><g><g><line x1="0" y1="0" x2="0" y2="377.95999908447266" fill="rgb(0, 0, 0)" stroke="rgb(60, 60, 60)" stroke-width="1px" opacity="0.25"></line><line x1="122.51999998092651" y1="0" x2="122.51999998092651" y2="377.95999908447266" fill="rgb(0, 0, 0)" stroke="rgb(60, 60, 60)" stroke-width="1px" opacity="0.25"></line><line x1="245.03999996185303" y1="0" x2="245.03999996185303" y2="377.95999908447266" fill="rgb(0, 0, 0)" stroke="rgb(60, 60, 60)" stroke-width="1px" opacity="0.25"></line><line x1="367.55999994277954" y1="0" x2="367.55999994277954" y2="377.95999908447266" fill="rgb(0, 0, 0)" stroke="rgb(60, 60, 60)" stroke-width="1px" opacity="0.25"></line><line x1="490.07999992370605" y1="0" x2="490.07999992370605" y2="377.95999908447266" fill="rgb(0, 0, 0)" stroke="rgb(60, 60, 60)" stroke-width="1px" opacity="0.25"></line><line x1="612.5999999046326" y1="0" x2="612.5999999046326" y2="377.95999908447266" fill="rgb(0, 0, 0)" stroke="rgb(60, 60, 60)" stroke-width="1px" opacity="0.25"></line><line x1="735.1199998855591" y1="0" x2="735.1199998855591" y2="377.95999908447266" fill="rgb(0, 0, 0)" stroke="rgb(60, 60, 60)" stroke-width="1px" opacity="0.25"></line><line x1="857.6399998664856" y1="0" x2="857.6399998664856" y2="377.95999908447266" fill="rgb(0, 0, 0)" stroke="rgb(60, 60, 60)" stroke-width="1px" opacity="0.25"></line><line x1="980.1599998474121" y1="0" x2="980.1599998474121" y2="377.95999908447266" fill="rgb(0, 0, 0)" stroke="rgb(60, 60, 60)" stroke-width="1px" opacity="0.25"></line><line x1="1102.6799998283386" y1="0" x2="1102.6799998283386" y2="377.95999908447266" fill="rgb(0, 0, 0)" stroke="rgb(60, 60, 60)" stroke-width="1px" opacity="0.25"></line><line x1="1225.1999998092651" y1="0" x2="1225.1999998092651" y2="377.95999908447266" fill="rgb(0, 0, 0)" stroke="rgb(60, 60, 60)" stroke-width="1px" opacity="0.25"></line><line x1="1347.7199997901917" y1="0" x2="1347.7199997901917" y2="377.95999908447266" fill="rgb(0, 0, 0)" stroke="rgb(60, 60, 60)" stroke-width="1px" opacity="0.25"></line><line x1="1470.2399997711182" y1="0" x2="1470.2399997711182" y2="377.95999908447266" fill="rgb(0, 0, 0)" stroke="rgb(60, 60, 60)" stroke-width="1px" opacity="0.25"></line></g><g><line x1="0" y1="377.95999908447266" x2="1470.2399997711182" y2="377.95999908447266" fill="rgb(0, 0, 0)" stroke="rgb(60, 60, 60)" stroke-width="1px" opacity="0.25"></line><line x1="0" y1="343.59999916770244" x2="1470.2399997711182" y2="343.59999916770244" fill="rgb(0, 0, 0)" stroke="rgb(60, 60, 60)" stroke-width="1px" opacity="0.25"></line><line x1="0" y1="309.23999925093216" x2="1470.2399997711182" y2="309.23999925093216" fill="rgb(0, 0, 0)" stroke="rgb(60, 60, 60)" stroke-width="1px" opacity="0.25"></line><line x1="0" y1="274.87999933416194" x2="1470.2399997711182" y2="274.87999933416194" fill="rgb(0, 0, 0)" stroke="rgb(60, 60, 60)" stroke-width="1px" opacity="0.25"></line><line x1="0" y1="240.5199994173917" x2="1470.2399997711182" y2="240.5199994173917" fill="rgb(0, 0, 0)" stroke="rgb(60, 60, 60)" stroke-width="1px" opacity="0.25"></line><line x1="0" y1="206.15999950062147" x2="1470.2399997711182" y2="206.15999950062147" fill="rgb(0, 0, 0)" stroke="rgb(60, 60, 60)" stroke-width="1px" opacity="0.25"></line><line x1="0" y1="171.79999958385122" x2="1470.2399997711182" y2="171.79999958385122" fill="rgb(0, 0, 0)" stroke="rgb(60, 60, 60)" stroke-width="1px" opacity="0.25"></line><line x1="0" y1="137.43999966708097" x2="1470.2399997711182" y2="137.43999966708097" fill="rgb(0, 0, 0)" stroke="rgb(60, 60, 60)" stroke-width="1px" opacity="0.25"></line><line x1="0" y1="103.07999975031072" x2="1470.2399997711182" y2="103.07999975031072" fill="rgb(0, 0, 0)" stroke="rgb(60, 60, 60)" stroke-width="1px" opacity="0.25"></line><line x1="0" y1="68.71999983354044" x2="1470.2399997711182" y2="68.71999983354044" fill="rgb(0, 0, 0)" stroke="rgb(60, 60, 60)" stroke-width="1px" opacity="0.25"></line><line x1="0" y1="34.35999991677028" x2="1470.2399997711182" y2="34.35999991677028" fill="rgb(0, 0, 0)" stroke="rgb(60, 60, 60)" stroke-width="1px" opacity="0.25"></line><line x1="0" y1="0" x2="1470.2399997711182" y2="0" fill="rgb(0, 0, 0)" stroke="rgb(60, 60, 60)" stroke-width="1px" opacity="0.25"></line></g></g></g><g><g><line x1="0" y1="343.59999916770244" x2="1470.2399997711182" y2="343.59999916770244" fill="rgb(0, 0, 0)" stroke="rgb(153, 153, 153)" stroke-width="1.5px"></line></g></g><g><g><line x1="122.51999998092651" y1="0" x2="122.51999998092651" y2="377.95999908447266" fill="rgb(0, 0, 0)" stroke="rgb(153, 153, 153)" stroke-width="1.5px"></line></g></g><g><g><g><g><g><path style="fill: none;" stroke="rgb(51, 187, 238)" stroke-width="2px" d="M159.27599997520448,-87.36099185381636L171.5279999732971,48.06365561477725L183.77999997138977,63.859079068947835L196.03199996948243,61.433048953974776L208.28399996757506,83.53499726469533L220.5359999656677,118.13271117014756L232.78799996376037,102.88110958355617L245.03999996185303,106.37375932485185L257.29199995994566,130.82154729053465L269.5439999580383,140.60474408995705L281.795999956131,130.94123004476134L294.04799995422366,124.28989145308469L306.2999999523163,136.32372958921852L318.55199995040897,120.97015321039362L330.8039999485016,154.85468582790054L343.0559999465942,154.16425881236103L355.3079999446869,154.8846360078817L367.55999994277954,145.2127332908313L379.8119999408722,160.31563256149875L392.06399993896486,168.6463701511826L404.31599993705754,164.64106770116777L416.5679999351501,179.61491249827085L428.8199999332428,190.82780112772625L441.0719999313354,199.39040685039336L453.3239999294281,215.4418814056283L465.57599992752074,229.99237352736526L477.8279999256134,246.41725539218154L490.07999992370605,256.89268146086226L502.33199992179874,265.7444997530192L514.5839999198913,276.00632271095026L526.835999917984,288.2450017279355L539.0879999160766,289.5247100034917L551.3399999141693,294.8652334204261L563.591999912262,298.70335226183704L575.8439999103546,302.3317379227563L588.0959999084473,304.4477476298499L600.3479999065399,310.96829175391736L612.5999999046326,310.46881188147006L624.8519999027252,312.24154140751045L637.1039999008179,313.78351036739843L649.3559998989105,315.7641806506866L661.6079998970032,320.2148658701609L673.8599998950958,318.7839173777622L686.1119998931885,320.4851269225916L698.3639998912811,320.43152953540755L710.6159998893738,322.9339981458314L722.8679998874663,323.6843517359328L735.1199998855591,324.6499812559174L747.3719998836517,326.4212640637454L759.6239998817445,325.2132150344603L771.8759998798371,328.14974498416484L784.1279998779297,326.94110121115256L796.3799998760223,328.6408607609446L808.6319998741151,328.67675510137275L820.8839998722077,329.85854447476896L833.1359998703002,330.25646079651324L845.3879998683929,330.2168226835874L857.6399998664856,331.0555039092399L869.8919998645782,332.60531513042326L882.1439998626709,330.1368517708478L894.3959998607635,332.4758445000911L906.6479998588562,333.39165317363876L918.8999998569489,333.1064358729609L931.1519998550415,331.5665337704059L943.4039998531342,333.946366388123L955.6559998512269,333.8711321258388L967.9079998493195,334.4940065759673L980.1599998474121,333.69989344636775L992.4119998455049,334.46696867415443L1004.6639998435975,334.88079889623555L1016.91599984169,334.50450142705427L1029.1679998397826,335.3409421236518L1041.4199998378754,335.040397474302L1053.671999835968,335.2534926771855L1065.9239998340606,334.6160928812899L1078.1759998321531,335.7790913020491L1090.427999830246,335.7989349346991L1102.6799998283386,336.22629598617704L1114.9319998264311,337.64852402819554L1127.183999824524,336.041633793326L1139.4359998226166,336.1113793738303L1151.6879998207091,336.6774066456373L1163.9399998188019,337.641782370478L1176.1919998168946,336.7193573777668L1188.4439998149871,338.3060083033745L1200.6959998130799,337.35298350013716L1212.9479998111724,336.51345316722126L1225.1999998092651,338.0926960108385L1237.4519998073579,337.2371673993435L1249.7039998054504,337.88044827680596L1261.955999803543,337.59336687233855L1274.2079998016359,337.2679433392104L1286.4599997997284,338.1403054100419L1298.711999797821,337.6368163422765L1310.9639997959139,338.52061903779423L1323.2159997940064,338.1439770923908L1335.467999792099,337.9234717595013" fill="none"></path></g><g><path style="fill: none;" stroke="rgb(0, 119, 187)" stroke-width="2px" d="M122.51999998092651,-181.7817850821334L134.77199997901914,204.35845357603023L147.02399997711183,251.59874794097084L159.27599997520448,276.05682513697536L171.5279999732971,297.62666622928884L183.77999997138977,312.9015922558262L196.03199996948243,322.93110307099414L208.28399996757506,329.55999377339714L220.5359999656677,333.67212235497385L232.78799996376037,336.14535349484174L245.03999996185303,337.84456868209L257.29199995994566,338.8244339584374L269.5439999580383,339.27241484047374L281.795999956131,339.35959640650094L294.04799995422366,339.1996394257063L306.2999999523163,338.89266032097737L318.55199995040897,338.54033323585895L330.8039999485016,338.2352559184064L343.0559999465942,338.0414923442755L355.3079999446869,337.9800567918273L367.55999994277954,338.0621306069743L379.8119999408722,338.2695126655692L392.06399993896486,338.56738096814667L404.31599993705754,338.9162899152461L416.5679999351501,339.2828511183148L428.8199999332428,339.6469186576017L441.0719999313354,340.0024263109306L453.3239999294281,340.35177312376317L465.57599992752074,340.69796763100027L477.8279999256134,341.04166601683687L490.07999992370605,341.37288809650374L502.33199992179874,341.680917423627L514.5839999198913,341.9557344915381L526.835999917984,342.19107155332694L539.0879999160766,342.3859916418612L551.3399999141693,342.54440482850447L563.591999912262,342.6731385828275L575.8439999103546,342.7793414520451L588.0959999084473,342.8684930042679L600.3479999065399,342.9435950159454L612.5999999046326,343.0061150438487L624.8519999027252,343.05610833319827L637.1039999008179,343.09387071984605L649.3559998989105,343.12199217550693L661.6079998970032,343.1445075980946L673.8599998950958,343.165656328679L686.1119998931885,343.18854484850675L698.3639998912811,343.21436013621303L710.6159998893738,343.24248363988954L722.8679998874663,343.2712986560298L735.1199998855591,343.2990988292451L747.3719998836517,343.3249724853957L759.6239998817445,343.3485636281718L771.8759998798371,343.3700012313551L784.1279998779297,343.38984276478914L796.3799998760223,343.40850023801005L808.6319998741151,343.426031341057L820.8839998722077,343.4421779087649L833.1359998703002,343.45659282809146L845.3879998683929,343.46908636319245L857.6399998664856,343.47974993236363L869.8919998645782,343.48894531755906L882.1439998626709,343.4971500264134L894.3959998607635,343.5045537563707L906.6479998588562,343.51132196149035L918.8999998569489,343.5174901364426L931.1519998550415,343.52302689538845L943.4039998531342,343.5279083789464L955.6559998512269,343.5321503568364L967.9079998493195,343.5358049126549L980.1599998474121,343.53892916683674L992.4119998455049,343.5415650397011L1004.6639998435975,343.54379163584997L1016.91599984169,343.5455458316029L1029.1679998397826,343.54690325633567L1041.4199998378754,343.5480142311924L1053.671999835968,343.54907398005923L1065.9239998340606,343.5502612178965L1078.1759998321531,343.5516945056067L1090.427999830246,343.55340009618965L1102.6799998283386,343.55533535252084L1114.9319998264311,343.5574173779693L1127.183999824524,343.559572091971L1139.4359998226166,343.561722642741L1151.6879998207091,343.5637643638826L1163.9399998188019,343.56563711733804L1176.1919998168946,343.56729560356246L1188.4439998149871,343.5687128399505L1200.6959998130799,343.5698821416512L1212.9479998111724,343.5708176463723L1225.1999998092651,343.571549741545L1237.4519998073579,343.57211679866145L1249.7039998054504,343.572556437208L1261.955999803543,343.57290373585164L1274.2079998016359,343.5731932228552L1286.4599997997284,343.57346122809525L1298.711999797821,343.5737450702559L1310.9639997959139,343.5740732199538L1323.2159997940064,343.57446035890064L1335.467999792099,343.5749030006701" fill="none"></path></g></g></g></g></g></g><g transform="translate(30, 377)" clip-path="url(#clip_1)"><clipPath id="clip_1"><rect width="1470" height="22"></rect></clipPath><g><g><line x1="0" y1="0" x2="0" y2="5" style="visibility: inherit;" fill="rgb(0, 0, 0)" stroke="rgb(204, 204, 204)" stroke-width="1px"></line><line x1="122.51999998092651" y1="0" x2="122.51999998092651" y2="5" style="visibility: inherit;" fill="rgb(0, 0, 0)" stroke="rgb(204, 204, 204)" stroke-width="1px"></line><line x1="245.03999996185303" y1="0" x2="245.03999996185303" y2="5" style="visibility: inherit;" fill="rgb(0, 0, 0)" stroke="rgb(204, 204, 204)" stroke-width="1px"></line><line x1="367.55999994277954" y1="0" x2="367.55999994277954" y2="5" style="visibility: inherit;" fill="rgb(0, 0, 0)" stroke="rgb(204, 204, 204)" stroke-width="1px"></line><line x1="490.07999992370605" y1="0" x2="490.07999992370605" y2="5" style="visibility: inherit;" fill="rgb(0, 0, 0)" stroke="rgb(204, 204, 204)" stroke-width="1px"></line><line x1="612.5999999046326" y1="0" x2="612.5999999046326" y2="5" style="visibility: inherit;" fill="rgb(0, 0, 0)" stroke="rgb(204, 204, 204)" stroke-width="1px"></line><line x1="735.1199998855591" y1="0" x2="735.1199998855591" y2="5" style="visibility: inherit;" fill="rgb(0, 0, 0)" stroke="rgb(204, 204, 204)" stroke-width="1px"></line><line x1="857.6399998664856" y1="0" x2="857.6399998664856" y2="5" style="visibility: inherit;" fill="rgb(0, 0, 0)" stroke="rgb(204, 204, 204)" stroke-width="1px"></line><line x1="980.1599998474121" y1="0" x2="980.1599998474121" y2="5" style="visibility: inherit;" fill="rgb(0, 0, 0)" stroke="rgb(204, 204, 204)" stroke-width="1px"></line><line x1="1102.6799998283386" y1="0" x2="1102.6799998283386" y2="5" style="visibility: inherit;" fill="rgb(0, 0, 0)" stroke="rgb(204, 204, 204)" stroke-width="1px"></line><line x1="1225.1999998092651" y1="0" x2="1225.1999998092651" y2="5" style="visibility: inherit;" fill="rgb(0, 0, 0)" stroke="rgb(204, 204, 204)" stroke-width="1px"></line><line x1="1347.7199997901917" y1="0" x2="1347.7199997901917" y2="5" style="visibility: inherit;" fill="rgb(0, 0, 0)" stroke="rgb(204, 204, 204)" stroke-width="1px"></line><line x1="1470.2399997711182" y1="0" x2="1470.2399997711182" y2="5" style="visibility: inherit;" fill="rgb(0, 0, 0)" stroke="rgb(204, 204, 204)" stroke-width="1px"></line></g><g transform="translate(0, 8)"><text style="text-anchor: middle; visibility: hidden; font-family: &quot;Helvetica Neue&quot;, sans-serif; font-size: 12px; font-weight: 200;" x="0" y="0" dx="0em" dy="0.95em" fill="rgb(50, 49, 63)" stroke="none" stroke-width="1px">-10</text><text style="text-anchor: middle; visibility: inherit; font-family: &quot;Helvetica Neue&quot;, sans-serif; font-size: 12px; font-weight: 200;" x="122.51999998092651" y="0" dx="0em" dy="0.95em" fill="rgb(50, 49, 63)" stroke="none" stroke-width="1px">0</text><text style="text-anchor: middle; visibility: inherit; font-family: &quot;Helvetica Neue&quot;, sans-serif; font-size: 12px; font-weight: 200;" x="245.03999996185303" y="0" dx="0em" dy="0.95em" fill="rgb(50, 49, 63)" stroke="none" stroke-width="1px">10</text><text style="text-anchor: middle; visibility: inherit; font-family: &quot;Helvetica Neue&quot;, sans-serif; font-size: 12px; font-weight: 200;" x="367.55999994277954" y="0" dx="0em" dy="0.95em" fill="rgb(50, 49, 63)" stroke="none" stroke-width="1px">20</text><text style="text-anchor: middle; visibility: inherit; font-family: &quot;Helvetica Neue&quot;, sans-serif; font-size: 12px; font-weight: 200;" x="490.07999992370605" y="0" dx="0em" dy="0.95em" fill="rgb(50, 49, 63)" stroke="none" stroke-width="1px">30</text><text style="text-anchor: middle; visibility: inherit; font-family: &quot;Helvetica Neue&quot;, sans-serif; font-size: 12px; font-weight: 200;" x="612.5999999046326" y="0" dx="0em" dy="0.95em" fill="rgb(50, 49, 63)" stroke="none" stroke-width="1px">40</text><text style="text-anchor: middle; visibility: inherit; font-family: &quot;Helvetica Neue&quot;, sans-serif; font-size: 12px; font-weight: 200;" x="735.1199998855591" y="0" dx="0em" dy="0.95em" fill="rgb(50, 49, 63)" stroke="none" stroke-width="1px">50</text><text style="text-anchor: middle; visibility: inherit; font-family: &quot;Helvetica Neue&quot;, sans-serif; font-size: 12px; font-weight: 200;" x="857.6399998664856" y="0" dx="0em" dy="0.95em" fill="rgb(50, 49, 63)" stroke="none" stroke-width="1px">60</text><text style="text-anchor: middle; visibility: inherit; font-family: &quot;Helvetica Neue&quot;, sans-serif; font-size: 12px; font-weight: 200;" x="980.1599998474121" y="0" dx="0em" dy="0.95em" fill="rgb(50, 49, 63)" stroke="none" stroke-width="1px">70</text><text style="text-anchor: middle; visibility: inherit; font-family: &quot;Helvetica Neue&quot;, sans-serif; font-size: 12px; font-weight: 200;" x="1102.6799998283386" y="0" dx="0em" dy="0.95em" fill="rgb(50, 49, 63)" stroke="none" stroke-width="1px">80</text><text style="text-anchor: middle; visibility: inherit; font-family: &quot;Helvetica Neue&quot;, sans-serif; font-size: 12px; font-weight: 200;" x="1225.1999998092651" y="0" dx="0em" dy="0.95em" fill="rgb(50, 49, 63)" stroke="none" stroke-width="1px">90</text><text style="text-anchor: middle; visibility: inherit; font-family: &quot;Helvetica Neue&quot;, sans-serif; font-size: 12px; font-weight: 200;" x="1347.7199997901917" y="0" dx="0em" dy="0.95em" fill="rgb(50, 49, 63)" stroke="none" stroke-width="1px">100</text><text style="text-anchor: middle; visibility: hidden; font-family: &quot;Helvetica Neue&quot;, sans-serif; font-size: 12px; font-weight: 200;" x="1470.2399997711182" y="0" dx="0em" dy="0.95em" fill="rgb(50, 49, 63)" stroke="none" stroke-width="1px">110</text></g><line x1="0" y1="0" x2="1470.2399997711182" y2="0" fill="rgb(0, 0, 0)" stroke="rgb(204, 204, 204)" stroke-width="1px"></line></g></g></g></g></svg>